<ttFont>
          <CharString index="0">
            307 -10 rmoveto
            128 91 -20 callsubr
            -161 46 rlineto
            -33 -12 -42 -20 -41 hhcurveto
            -44 -44 23 56 -4 hvcurveto
            369 hlineto
            3 16 2 22 20 vvcurveto
            -85 callsubr
            -71 callsubr
            -152 -141 103 -125 185 vhcurveto
            -90 329 rmoveto
            51 6 33 31 48 hhcurveto
            48 33 -31 -51 6 hvcurveto
            return
          </CharString>
          <CharString index="1">
            307 -10 rmoveto
            188 100 129 144 -85 callsubr
            -61 callsubr
            -144 100 -129 188 hvcurveto
            -93 273 rmoveto
            70 39 43 54 54 39 -43 -70 -70 -39 -43 -54 -54 -39 43 70 vhcurveto
            return
          </CharString>
          <CharString index="2">
            575 639 rmoveto
            32 -64 -99 45 -103 hhcurveto
            -140 -125 -83 -157 -104 55 -53 125 -42 hvcurveto
            85 -29 73 -9 -41 vvcurveto
            -19 -15 -12 -42 -109 -119 78 0 vhcurveto
            -84 -171 rlineto
            -50 85 121 -33 103 hhcurveto
            132 138 55 171 133 -83 46 -131 41 hvcurveto
            -82 26 -50 8 37 vvcurveto
            25 23 10 34 85 103 -65 0 vhcurveto
            return
          </CharString>
          <CharString index="3">
            rmoveto
            85 63 85 -63 96 42 -113 115 rlineto
            -136 hlineto
            -113 -115 rlineto
            endchar
          </CharString>
          <CharString index="4">
            -102 callgsubr
            endchar
          </CharString>
          <CharString index="5">
            40 callsubr
            73 vlineto
            125 -218 rlineto
            220 hlineto
            -150 261 rlineto
            64 45 38 76 82 vvcurveto
            121 -100 125 -139 vhcurveto
            -326 -710 hlineto
            -14 callsubr
            rmoveto
            118 hlineto
            24 30 -27 -49 -48 -25 -28 -24 hvcurveto
            -123 hlineto
            return
          </CharString>
          <CharString index="6">
            22 361 rmoveto
            -182 147 -185 210 121 141 60 105 42 vhcurveto
            -159 95 rlineto
            -64 -24 -64 -23 -53 hhcurveto
            -102 -61 89 99 89 49 97 112 53 66 -19 -69 27 hvcurveto
            149 106 rlineto
            93 -49 -106 62 -136 hhcurveto
            -228 -135 -180 -173 hvcurveto
            return
          </CharString>
          <CharString index="7">
            rmoveto
            140 -156 -140 vlineto
            386 hmoveto
            140 -156 -140 vlineto
            endchar
          </CharString>
          <CharString index="8">
            19 263 rmoveto
            -144 103 -129 186 127 87 59 84 43 vhcurveto
            70 callgsubr
            -25 -17 -25 -14 -31 hhcurveto
            -52 -41 42 71 71 41 42 52 31 25 -14 -25 17 hvcurveto
            185 56 rlineto
            84 -43 -87 59 -127 hhcurveto
            -186 -103 -129 -144 hvcurveto
            return
          </CharString>
          <CharString index="9">
            -46 -43 -52 -24 -55 hhcurveto
            -98 -66 75 111 110 66 78 93 62 62 -37 -56 28 hvcurveto
            145 111 rlineto
            96 -51 -111 59 -128 hhcurveto
            -205 -159 -155 -199 -231 160 -135 185 67 56 20 44 52 hvcurveto
            return
          </CharString>
          <CharString index="10">
            rmoveto
            90 32 -40 142 rlineto
            -139 hlineto
            -101 -174 rmoveto
            90 32 -40 142 rlineto
            -139 hlineto
            endchar
          </CharString>
          <CharString index="11">
            566 173 rmoveto
            -33 113 94 240 rlineto
            -151 hlineto
            -45 -154 -45 154 rlineto
            -151 hlineto
            94 -240 -33 -113 -127 353 rlineto
            -179 hlineto
            215 -526 rlineto
            155 hlineto
            71 200 71 -200 rlineto
            155 hlineto
            215 526 rlineto
            -179 hlineto
            return
          </CharString>
          <CharString index="12">
            -43 -22 -36 -26 -52 vvcurveto
            -81 88 -60 105 104 88 59 80 vhcurveto
            -110 12 rmoveto
            -24 -39 -18 -43 -41 -42 17 25 24 37 17 45 43 40 -16 -25 vhcurveto
            return
          </CharString>
          <CharString index="13">
            57 -33 -60 31 -75 hhcurveto
            -144 -101 -115 -157 -149 92 -115 137 hvcurveto
            68 150 rmoveto
            -60 -43 44 65 64 41 53 54 40 40 -30 -48 19 26 callsubr
            -28 -18 -38 hhcurveto
            return
          </CharString>
          <CharString index="14">
            rmoveto
            -83 77 -62 111 34 44 6 14 21 vhcurveto
            -42 -2 -40 -25 -61 hhcurveto
            -41 -39 12 21 -23 hvcurveto
            -62 -77 rlineto
            -39 40 58 -20 63 hhcurveto
            129 78 88 143 139 -73 80 -120 -111 -83 -68 -87 hvcurveto
            192 55 rmoveto
            49 41 -26 -29 -28 -40 -22 -49 -49 -40 22 28 29 40 26 48 hvcurveto
            endchar
          </CharString>
          <CharString index="15">
            31 26 -34 -47 4 hvcurveto
            98 hlineto
            95 -65 67 -94 -94 -65 -67 -95 vhcurveto
            98 hlineto
            return
          </CharString>
          <CharString index="16">
            rmoveto
            -32 -19 -6 -2 -9 hvcurveto
            17 51 rlineto
            180 109 -258 hlineto
            -16 -93 -28 -90 -17 -92 rrcurveto
            94 hlineto
            25 13 38 18 30 hhcurveto
            29 40 -16 -41 -40 -36 -13 -44 -48 -40 15 25 -28 hvcurveto
            -62 -76 rlineto
            -43 33 65 -26 73 hhcurveto
            116 82 63 89 84 -74 59 -99 hvcurveto
            endchar
          </CharString>
          <CharString index="17">
            -33 -28 37 44 hvcurveto
            -98 hlineto
            -95 65 -67 94 94 65 67 95 vhcurveto
            -98 hlineto
            return
          </CharString>
          <CharString index="18">
            334 hmoveto
            216 142 141 215 196 -122 158 -236 hvcurveto
            -273 -710 58 callgsubr
            370 78 hlineto
            100 60 -74 -110 hvcurveto
            return
          </CharString>
          <CharString index="19">
            497 -10 140 -140 -8 callgsubr
            -140 140 -10 -20 224 -20 hstemhm
            -14 callgsubr
            hintmask 1001001110000000
            268 -10 rmoveto
            69 66 28 64 36 -82 callgsubr
            hintmask 0011001110000000
            -19 callgsubr
            hvcurveto
            hintmask 1001001110000000
            -161 103 -113 145 vhcurveto
            hintmask 0101001110000000
            -78 callsubr
            hintmask 0011001110000000
            367 -150 rmoveto
            447 hlineto
            hintmask 1000011110000000
            45 callgsubr
            vlineto
            hintmask 0010101110000000
            -130 225 vlineto
            -240 -284 rlineto
            return
          </CharString>
          <CharString index="20">
            -10 rmoveto
            263 347 271 309 -83 75 -251 -337 -283 -319 rlineto
            return
          </CharString>
          <CharString index="21">
            160 rmoveto
            -62 -42 44 66 64 41 52 55 40 40 -32 -46 18 26 callsubr
            -29 -18 -36 hhcurveto
            return
          </CharString>
          <CharString index="22">
            145 -100 128 -188 return
          </CharString>
          <CharString index="23">
            -29 42 51 -15 61 hhcurveto
            258 32 144 216 hvcurveto
            361 -195 -361 vlineto
            -135 -12 -52 -83 -57 -48 24 6 -8 vhcurveto
            return
          </CharString>
          <CharString index="24">
            54 61 rlineto
            106 -157 -106 57 vlineto
            -36 -61 rlineto
            endchar
          </CharString>
          <CharString index="25">
            rmoveto
            142 87 116 107 96 -78 127 -151 -142 -88 -117 -106 -99 78 -124 152 hvcurveto
            -118 223 rmoveto
            48 34 66 84 78 39 -61 -53 -48 -34 -66 -83 -81 -37 61 53 vhcurveto
            endchar
          </CharString>
          <CharString index="26">
            -150 160 rmoveto
            18 31 12 36 36 32 -12 -18 -19 -36 -11 -32 -32 -35 11 19 vhcurveto
            return
          </CharString>
          <CharString index="27">
            190 295 hlineto
            44 17 42 31 32 hhcurveto
            31 27 4 callgsubr
            return
          </CharString>
          <CharString index="28">
            -192 rmoveto
            -11 27 38 -10 48 hhcurveto
            105 47 47 56 56 -46 22 -48 -10 -9 -1 -1 -8 hvcurveto
            return
          </CharString>
          <CharString index="29">
            52 -86 callsubr
            return
          </CharString>
          <CharString index="30">
            577 346 rmoveto
            72 -17 118 -143 -91 -70 -31 -57 -37 vhcurveto
            return
          </CharString>
          <CharString index="31">
            22 hmoveto
            447 130 -248 hlineto
            -67 callgsubr
            return
          </CharString>
          <CharString index="32">
            rlineto
            3 15 36 6 28 hhcurveto
            33 22 -8 -22 -23 -25 -8 -31 -36 -40 11 9 -14 hvcurveto
            endchar
          </CharString>
          <CharString index="33">
            rmoveto
            hintmask 11001100
            -65 callsubr
            hintmask 11100100
            -3 -6 -48 -44 vhcurveto
            hintmask 11001100
            -36 callgsubr
            hintmask 11100100
            -64 callgsubr
            hintmask 11010100
            2 1 46 45 vhcurveto
            hintmask 11100100
            -47 callgsubr
          </CharString>
          <CharString index="34">
            0 -69 callgsubr
            return
          </CharString>
          <CharString index="35">
            160 226 160 return
          </CharString>
          <CharString index="36">
            -188 -100 -128 return
          </CharString>
          <CharString index="37">
            rmoveto
            -139 hlineto
            -40 -142 90 -32 rlineto
            279 174 rmoveto
            -139 hlineto
            -40 -142 90 -32 rlineto
            endchar
          </CharString>
          <CharString index="38">
            405 535 rmoveto
            1 -5 -5 0 -14 hhcurveto
            -63 -59 -40 -70 -37 hvcurveto
            return
          </CharString>
          <CharString index="39">
            120 -32 rlineto
            return
          </CharString>
          <CharString index="40">
            -6 173 374 173 return
          </CharString>
          <CharString index="41">
            -2 -1 -51 -57 -41 hhcurveto
            -109 vlineto
            31 48 34 19 14 hvcurveto
            -221 -76 -107 253 107 vlineto
            return
          </CharString>
          <CharString index="42">
            103 40 135 23 hvcurveto
            -100 hlineto
            return
          </CharString>
          <CharString index="43">
            58 0 170 117 140 113 25 callgsubr
            238 198 vstem
            338 hmoveto
            216 142 141 215 196 -122 158 -236 hvcurveto
            -273 -283 -37 -140 37 -287 58 callgsubr
            117 114 140 -114 113 78 callgsubr
          </CharString>
          <CharString index="44">
            rmoveto
            -133 107 -100 143 47 35 11 23 26 vhcurveto
            -71 -3 -40 -42 -65 hhcurveto
            -45 -44 19 35 -35 hvcurveto
            -105 -122 rlineto
            -63 63 77 -33 86 hhcurveto
            178 108 142 234 221 -97 129 -170 -152 -114 -110 -140 hvcurveto
            266 91 rmoveto
            45 40 -42 -49 -47 -38 -37 -47 -47 -38 37 47 49 40 42 45 hvcurveto
            endchar
          </CharString>
          <CharString index="45">
            -63 -65 callgsubr
            return
          </CharString>
          <CharString index="46">
            -71 callsubr
            -145 return
          </CharString>
          <CharString index="47">
            578 hmoveto
            170 -322 540 -48 callgsubr
            vlineto
            return
          </CharString>
          <CharString index="48">
            -213 rmoveto
            178 239 hlineto
            -26 13 21 -11 23 hhcurveto
            52 65 52 41 17 -27 callgsubr
            hintmask 10111100
            -49 10 38 -24 64 hhcurveto
            23 29 3 7 38 -59 callgsubr
            -35 2 -11 12 36 vvcurveto
            316 -36 callsubr
            hintmask 11011100
            33 callgsubr
            vlineto
            endchar
          </CharString>
          <CharString index="49">
            110 -93 108 135 109 -94 110 return
          </CharString>
          <CharString index="50">
            rmoveto
            -32 -14 -5 0 hvcurveto
            11 77 rlineto
            219 173 -356 hlineto
            -84 -442 rlineto
            163 hlineto
            21 12 25 14 28 hhcurveto
            41 28 -29 -44 -45 -30 -29 -49 -45 -51 25 41 -38 hvcurveto
            -104 -120 rlineto
            -71 45 88 -41 104 hhcurveto
            163 112 100 144 136 -98 95 -138 hvcurveto
            endchar
          </CharString>
          <CharString index="51">
            109 83 89 60 105 hstemhm
            27 -58 callsubr
            hintmask 11110010
            412 return
          </CharString>
          <CharString index="52">
            107 -59 59 -59 110 return
          </CharString>
          <CharString index="53">
            61 195 return
          </CharString>
          <CharString index="54">
            -10 -24 -25 -7 -19 hhcurveto
            -25 -16 12 35 hvcurveto
            return
          </CharString>
          <CharString index="55">
            -108 -7 callgsubr
            -1 526 rmoveto
            176 -263 -181 -263 rlineto
            193 hlineto
            81 129 9 20 9 -20 81 -129 rlineto
            193 hlineto
            -181 263 176 263 rlineto
            -193 hlineto
            -75 -129 -10 -21 -10 21 -75 129 rlineto
            endchar
          </CharString>
          <CharString index="56">
            -47 -4 -26 -34 -31 hhcurveto
            endchar
          </CharString>
          <CharString index="57">
            543 hmoveto
            161 378 -292 -140 123 hlineto
            return
          </CharString>
          <CharString index="58">
            -55 callsubr
            hstemhm
            return
          </CharString>
          <CharString index="59">
            3 callgsubr
            214 34 callgsubr
            hintmask 10111000
            -69 callsubr
            hintmask 11011000
            5 callgsubr
            hintmask 11010100
            -43 callgsubr
            return
          </CharString>
          <CharString index="60">
            218 -7 rmoveto
            98 45 50 127 59 hvcurveto
            250 540 rlineto
            -205 hlineto
            -124 -317 -135 317 rlineto
            -215 hlineto
            263 -506 rlineto
            -26 -5 -22 -16 -29 hhcurveto
            -34 -28 24 6 -4 hvcurveto
            -41 -159 rlineto
            -29 35 61 -11 31 hhcurveto
            return
          </CharString>
          <CharString index="61">
            262 32 hlineto
            205 -262 rlineto
            217 hlineto
            -280 367 257 343 rlineto
            -220 hlineto
            -196 -271 rlineto
            -15 return
          </CharString>
          <CharString index="62">
            173 -147 -21 238 140 164 173 return
          </CharString>
          <CharString index="63">
            614 -12 callsubr
            -604 -170 205 -540 -14 callsubr
            204 hlineto
            return
          </CharString>
          <CharString index="64">
            -114 72 -39 86 58 64 17 23 53 vhcurveto
            return
          </CharString>
          <CharString index="65">
            293 156 rmoveto
            -18 -16 4 9 -14 hvcurveto
            133 150 rlineto
            5 -14 3 -17 -19 vvcurveto
            -70 -39 -43 -54 vhcurveto
            -93 113 rmoveto
            70 39 43 54 15 14 -4 -6 13 vhcurveto
            -130 -146 rlineto
            -3 13 -2 14 16 vvcurveto
            endchar
          </CharString>
          <CharString index="66">
            110 76 99 66 101 hstemhm
            267 126 -111 111 hintmask 11110000
            194 return
          </CharString>
          <CharString index="67">
            184 -154 -184 vlineto
            return
          </CharString>
          <CharString index="68">
            rmoveto
            hintmask 11100110
            -65 callsubr
            hintmask 11110010
            -3 -6 -48 -44 vhcurveto
            hintmask 11100110
            -36 callgsubr
            hintmask 11110010
            -64 callgsubr
            hintmask 11101010
            2 1 46 45 vhcurveto
            hintmask 11110010
            -47 callgsubr
          </CharString>
          <CharString index="69">
            44 28 37 33 vhcurveto
            endchar
          </CharString>
          <CharString index="70">
            -21 139 130 441 -20 return
          </CharString>
          <CharString index="71">
            -190 -322 vlineto
            return
          </CharString>
          <CharString index="72">
            32 callsubr
            hvcurveto
            57 136 rmoveto
            -99 callgsubr
            -54 callgsubr
            return
          </CharString>
          <CharString index="73">
            109 228 109 hstem
            26 112 235 112 vstem
            256 return
          </CharString>
          <CharString index="74">
            hmoveto
            218 116 vlineto
            140 94 120 126 121 -100 125 -139 hvcurveto
            -306 -710 hlineto
            -14 callsubr
            rmoveto
            98 hlineto
            24 30 -17 -59 -57 -25 -19 -24 hvcurveto
            -103 hlineto
            endchar
          </CharString>
          <CharString index="75">
            rmoveto
            277 -180 rlineto
            152 vlineto
            -128 77 128 85 rlineto
            152 vlineto
            -277 -198 rlineto
            return
          </CharString>
          <CharString index="76">
            149 190 return
          </CharString>
          <CharString index="77">
            -21 710 -20 return
          </CharString>
          <CharString index="78">
            -59 callgsubr
            -27 2 -9 12 36 vvcurveto
            return
          </CharString>
          <CharString index="79">
            -41 -7 callsubr
            return
          </CharString>
          <CharString index="80">
            -213 150 return
          </CharString>
          <CharString index="81">
            190 -107 107 250 -20 hstemhm
            238 104 hintmask 10110000
            342 return
          </CharString>
          <CharString index="82">
            19 -13 callgsubr
            return
          </CharString>
          <CharString index="83">
            596 hmoveto
            -199 296 181 230 rlineto
            -200 hlineto
            -140 -195 rlineto
            399 -190 -730 57 callsubr
            return
          </CharString>
          <CharString index="84">
            100 105 94 47 104 hstem
            29 105 179 103 vstem
            416 return
          </CharString>
          <CharString index="85">
            78 -171 -526 vlineto
            return
          </CharString>
          <CharString index="86">
            rmoveto
            -4 184 -189 -526 189 169 4 hlineto
            140 -169 rlineto
            220 hlineto
            -222 272 204 254 rlineto
            -201 hlineto
            endchar
          </CharString>
          <CharString index="87">
            59 84 43 hvcurveto
            return
          </CharString>
          <CharString index="88">
            103 47 95 105 100 hstem
            25 104 178 105 vstem
            25 return
          </CharString>
          <CharString index="89">
            156 74 156 return
          </CharString>
          <CharString index="90">
            112 258 return
          </CharString>
          <CharString index="91">
            -12 callsubr
            -158 hlineto
            -237 -560 rlineto
            -150 631 150 vlineto
            -442 20 rmoveto
            127 327 133 -327 rlineto
            endchar
          </CharString>
          <CharString index="92">
            77 -17 113 -148 -74 -63 return
          </CharString>
          <CharString index="93">
            195 540 return
          </CharString>
          <CharString index="94">
            -21 526 return
          </CharString>
          <CharString index="95">
            710 rmoveto
            return
          </CharString>
          <CharString index="96">
            42 126 rlineto
            165 -197 -160 52 vlineto
            -26 -131 rlineto
            return
          </CharString>
          <CharString index="97">
            42 146 rlineto
            189 -197 -184 52 vlineto
            -26 -151 rlineto
            return
          </CharString>
          <CharString index="98">
            -45 callgsubr
            endchar
          </CharString>
          <CharString index="99">
            -161 -10 133 283 131 return
          </CharString>
          <CharString index="100">
            21 -5 callgsubr
            return
          </CharString>
          <CharString index="101">
            81 -81 162 hstemhm
            return
          </CharString>
          <CharString index="102">
            51 195 251 return
          </CharString>
          <CharString index="103">
            -20 42 callgsubr
            return
          </CharString>
          <CharString index="104">
            -65 -143 65 return
          </CharString>
          <CharString index="105">
            0 23 callsubr
            return
          </CharString>
          <CharString index="106">
            -22 -52 hvcurveto
            -296 190 return
          </CharString>
          <CharString index="107">
            179 rmoveto
            -53 callsubr
            return
          </CharString>
          <CharString index="108">
            54 callgsubr
            -165 return
          </CharString>
          <CharString index="109">
            21 12 callgsubr
            return
          </CharString>
          <CharString index="110">
            -107 -234 164 596 -20 return
          </CharString>
          <CharString index="111">
            23 callgsubr
            190 return
          </CharString>
          <CharString index="112">
            -71 callgsubr
            hstem
            return
          </CharString>
          <CharString index="113">
            -17 41 46 -9 50 hhcurveto
            212 150 172 186 84 -32 85 -55 66 hvcurveto
            90 123 rlineto
            return
          </CharString>
          <CharString index="114">
            -139 485 170 -291 106 228 170 -228 94 282 170 -527 vlineto
            return
          </CharString>
          <CharString index="115">
            143 81 160 -126 160 hstemhm
            85 190 return
          </CharString>
          <CharString index="116">
            -36 -25 -28 -18 -38 hhcurveto
            -60 -43 44 66 63 41 53 54 40 40 -30 -48 19 hvcurveto
            endchar
          </CharString>
          <CharString index="117">
            hstem
            50 -12 callgsubr
            428 526 rmoveto
            -378 -526 190 361 188 hlineto
            return
          </CharString>
          <CharString index="118">
            -168 0 130 266 130 return
          </CharString>
          <CharString index="119">
            176 376 173 return
          </CharString>
          <CharString index="120">
            -36 callgsubr
            -61 -38 -45 -44 -21 hvcurveto
            88 -44 rlineto
            12 6 11 11 23 hhcurveto
            return
          </CharString>
          <CharString index="121">
            vlineto
            32 17 -18 -28 -29 -17 -17 -32 hvcurveto
            endchar
          </CharString>
          <CharString index="122">
            -2 -33 -16 -22 hhcurveto
            -32 -11 32 25 hvcurveto
            293 vlineto
            140 -79 90 -181 return
          </CharString>
          <CharString index="123">
            49 24 30 34 34 24 -30 -49 -49 -24 -30 -34 -34 -24 30 49 vhcurveto
            endchar
          </CharString>
          <CharString index="124">
            -190 -361 -119 361 -190 -361 -120 361 -190 return
          </CharString>
          <CharString index="125">
            20 -53 -48 10 -41 hhcurveto
            -120 -76 -86 -132 hvcurveto
            -23 -3 callsubr
            return
          </CharString>
          <CharString index="126">
            rmoveto
            215 hlineto
            347 710 rlineto
            -570 -173 271 hlineto
            endchar
          </CharString>
          <CharString index="127">
            29 -67 callsubr
            return
          </CharString>
          <CharString index="128">
            105 110 80 43 109 hstem
            return
          </CharString>
          <CharString index="129">
            -322 190 322 return
          </CharString>
          <CharString index="130">
            170 370 170 return
          </CharString>
          <CharString index="131">
            0 27 callgsubr
            return
          </CharString>
          <CharString index="132">
            0 callsubr
            174 103 return
          </CharString>
          <CharString index="133">
            hvcurveto
            -94 vlineto
            -36 -25 return
          </CharString>
          <CharString index="134">
            107 336 -20 hstemhm
            30 230 -110 110 hintmask 11010000
            260 return
          </CharString>
          <CharString index="135">
            -215 1 callgsubr
            return
          </CharString>
          <CharString index="136">
            rmoveto
            98 hlineto
            50 27 -37 -42 -49 -26 -31 -51 hvcurveto
            -98 hlineto
            endchar
          </CharString>
          <CharString index="137">
            -3 rmoveto
            187 2 59 70 29 256 4 36 rcurveline
            67 hlineto
            return
          </CharString>
          <CharString index="138">
            vlineto
            55 -30 -60 33 -70 hhcurveto
            -133 -96 -117 -155 hvcurveto
            return
          </CharString>
          <CharString index="139">
            13 -27 -38 7 -41 hhcurveto
            -133 -94 -74 -106 -17 callgsubr
            return
          </CharString>
          <CharString index="140">
            102 -65 89 -126 -125 -66 -89 -102 -101 66 -90 125 return
          </CharString>
          <CharString index="141">
            -21 322 143 115 160 return
          </CharString>
          <CharString index="142">
            -21 331 109 hstem
            41 return
          </CharString>
          <CharString index="143">
            -24 -10 160 376 -20 return
          </CharString>
          <CharString index="144">
            22 198 325 198 return
          </CharString>
          <CharString index="145">
            170 hstem
            -54 callsubr
            return
          </CharString>
          <CharString index="146">
            21 -21 361 165 return
          </CharString>
          <CharString index="147">
            256 hmoveto
            218 return
          </CharString>
          <CharString index="148">
            hstemhm
            -54 callsubr
            return
          </CharString>
          <CharString index="149">
            -209 163 return
          </CharString>
          <CharString index="150">
            238 158 -238 118 292 170 -487 return
          </CharString>
          <CharString index="151">
            -111 -21 132 165 361 -20 hstemhm
            50 190 return
          </CharString>
          <CharString index="152">
            -192 -21 202 161 -139 -21 536 -20 hstemhm
            return
          </CharString>
          <CharString index="153">
            -496 hlineto
            -19 -208 -27 -293 -17 -36 -102 -12 rlinecurve
            return
          </CharString>
          <CharString index="154">
            hlineto
            136 75 77 117 111 -81 73 -142 hvcurveto
            return
          </CharString>
          <CharString index="155">
            72 46 vlineto
            32 17 -14 -22 -23 -17 -13 -32 hvcurveto
            endchar
          </CharString>
          <CharString index="156">
            101 -6 173 -146 -21 541 173 -4 -20 return
          </CharString>
          <CharString index="157">
            -48 -10 160 -135 -21 382 160 -4 -20 return
          </CharString>
          <CharString index="158">
            -10 90 136 90 98 90 136 90 1 -20 hstemhm
            return
          </CharString>
          <CharString index="159">
            914 -102 callgsubr
            return
          </CharString>
          <CharString index="160">
            -83 75 -251 -337 -283 -319 rlineto
            endchar
          </CharString>
          <CharString index="161">
            165 -165 190 194 return
          </CharString>
          <CharString index="162">
            -20 41 callsubr
            return
          </CharString>
          <CharString index="163">
            32 -6 173 118 155 101 173 hstem
            return
          </CharString>
          <CharString index="164">
            190 150 vlineto
            38 42 119 -192 rlineto
            return
          </CharString>
          <CharString index="165">
            hlineto
            46 183 rlineto
            -151 hlineto
            -45 -183 rlineto
            return
          </CharString>
          <CharString index="166">
            104 vvcurveto
            83 62 85 103 103 62 -85 -83 -104 -49 return
          </CharString>
          <CharString index="167">
            92 -71 callgsubr
            return
          </CharString>
          <CharString index="168">
            -18 callsubr
            vstem
            return
          </CharString>
          <CharString index="169">
            75 callgsubr
            hvcurveto
            return
          </CharString>
          <CharString index="170">
            -68 -401 rmoveto
            104 186 rlineto
            -186 vlineto
            return
          </CharString>
          <CharString index="171">
            -15 161 -128 128 -128 143 return
          </CharString>
          <CharString index="172">
            -142 -170 463 170 vlineto
            endchar
          </CharString>
          <CharString index="173">
            -20 62 -6 callsubr
            return
          </CharString>
          <CharString index="174">
            42 callsubr
            572 -20 return
          </CharString>
          <CharString index="175">
            130 96 130 return
          </CharString>
          <CharString index="176">
            -21 364 162 return
          </CharString>
          <CharString index="177">
            hstem
            22 198 return
          </CharString>
          <CharString index="178">
            190 336 hlineto
            hintmask 11111000
            -100 540 return
          </CharString>
          <CharString index="179">
            164 79 149 175 159 hstem
            return
          </CharString>
          <CharString index="180">
            38 -134 rcurveline
            16 50 56 11 38 hhcurveto
            return
          </CharString>
          <CharString index="181">
            -291 -40 150 480 150 hstemhm
            return
          </CharString>
          <CharString index="182">
            335 rmoveto
            -40 callsubr
            return
          </CharString>
          <CharString index="183">
            -10 158 57 110 63 158 hstem
            return
          </CharString>
          <CharString index="184">
            -546 rmoveto
            119 128 vlineto
            50 27 return
          </CharString>
          <CharString index="185">
            -170 -568 vlineto
            endchar
          </CharString>
        <CharString name=".notdef">
          -662 endchar
        </CharString>
        <CharString name="A">
          -55 callgsubr
          hstem
          -103 callgsubr
          endchar
        </CharString>
        <CharString name="A.sc">
          -62 21 -21 102 148 318 -20 hstem
          172 hmoveto
          40 102 rlineto
          175 hlineto
          41 -102 rlineto
          180 hlineto
          -239 568 rlineto
          -138 hlineto
          -240 -568 rlineto
          358 250 rmoveto
          -101 hlineto
          52 113 rlineto
          endchar
        </CharString>
        <CharString name="AE">
          46 callgsubr
          hstemhm
          441 209 hintmask 10111000
          -26 hmoveto
          206 hlineto
          hintmask 01011000
          75 139 rlineto
          201 hlineto
          hintmask 10111000
          7 callsubr
          hintmask 01011000
          63 callsubr
          endchar
        </CharString>
        <CharString name="AEacute">
          46 callgsubr
          204 -20 hstemhm
          441 209 hintmask 10111100
          -26 hmoveto
          206 hlineto
          hintmask 01011100
          75 139 rlineto
          201 hlineto
          hintmask 10111100
          7 callsubr
          hintmask 01011100
          63 callsubr
          341 605 -103 callsubr
        </CharString>
        <CharString name="Aacute">
          -55 callgsubr
          224 -20 hstem
          -103 callgsubr
          94 645 -103 callsubr
        </CharString>
        <CharString name="Abreve">
          -55 callgsubr
          62 81 -81 162 hstemhm
          hintmask 11110000
          -103 callgsubr
          -63 564 rmoveto
          hintmask 11101000
          -90 callsubr
          hintmask 11110000
          -51 callsubr
        </CharString>
        <CharString name="Acircumflex">
          -55 callgsubr
          224 -20 hstem
          -103 callgsubr
          -148 488 -104 callsubr
        </CharString>
        <CharString name="Adblgrave">
          -55 callgsubr
          225 -20 hstem
          -103 callgsubr
          15 472 -97 callsubr
        </CharString>
        <CharString name="Adieresis">
          -55 callgsubr
          75 140 hstem
          141 61 callsubr
          -103 callgsubr
          -100 496 -100 callsubr
        </CharString>
        <CharString name="Agrave">
          -55 callgsubr
          225 -20 hstem
          -103 callgsubr
          -121 472 -86 callgsubr
          endchar
        </CharString>
        <CharString name="Ainvertedbreve">
          -55 callgsubr
          62 -18 callgsubr
          hintmask 11101000
          -103 callgsubr
          -63 564 rmoveto
          hintmask 11110000
          -92 callsubr
          hintmask 11101000
          -38 callsubr
        </CharString>
        <CharString name="Amacron">
          -55 callgsubr
          101 113 hstem
          -103 callgsubr
          93 522 -61 callgsubr
        </CharString>
        <CharString name="Aogonek">
          18 -194 -21 236 -37 callsubr
          hstem
          480 117 vstem
          632 28 callsubr
          -246 710 rlineto
          -178 hlineto
          -247 -710 rlineto
          199 hlineto
          42 139 rlineto
          189 hlineto
          43 -139 rlineto
          95 hlineto
          59 callgsubr
          -364 484 rmoveto
          66 220 63 -220 rlineto
          endchar
        </CharString>
        <CharString name="Aring">
          -55 callgsubr
          50 54 66 54 hstem
          217 77 80 77 vstem
          -103 callgsubr
          -180 558 -89 callgsubr
          endchar
        </CharString>
        <CharString name="Aringacute">
          -55 callgsubr
          86 142 hstem
          217 77 80 77 vstem
          490 918 rmoveto
          -169 hlineto
          -38 -94 rlineto
          -42 -12 -24 -27 -42 vvcurveto
          -23 7 -18 13 -14 vhcurveto
          -239 -688 rlineto
          199 hlineto
          42 139 rlineto
          189 hlineto
          43 -139 rlineto
          198 hlineto
          -239 687 rlineto
          14 14 7 19 23 vvcurveto
          29 -12 22 -20 14 vhcurveto
          -151 -539 rmoveto
          66 220 63 -220 rlineto
          -63 507 rmoveto
          23 17 -13 -19 -20 -18 -14 -22 -23 -17 14 20 19 17 13 23 hvcurveto
          endchar
        </CharString>
        <CharString name="Atilde">
          -55 callgsubr
          66 -49 callsubr
          hintmask 11110000
          -103 callgsubr
          1 487 rmoveto
          hintmask 11100100
          -65 callsubr
          hintmask 11110000
          -3 -6 -48 -44 vhcurveto
          hintmask 11100100
          -36 callgsubr
          hintmask 11110000
          -64 callgsubr
          hintmask 11101000
          2 1 46 45 vhcurveto
          hintmask 11110000
          -47 callgsubr
        </CharString>
        <CharString name="B">
          28 66 callgsubr
          109 166 hstemhm
          61 -13 callgsubr
          193 -168 198 hintmask 11110100
          665 -63 callgsubr
        </CharString>
        <CharString name="B.sc">
          -52 0 143 78 133 69 145 hstemhm
          55 170 166 169 -146 173 hintmask 11110100
          587 145 rmoveto
          81 -45 46 -72 19 vhcurveto
          hintmask 11111000
          60 24 30 55 52 vvcurveto
          72 -55 74 -88 vhcurveto
          -362 -568 308 hlineto
          hintmask 11110100
          122 102 41 104 hvcurveto
          -173 36 rmoveto
          -26 -23 -12 -28 vhcurveto
          -138 78 144 hlineto
          26 19 -16 -24 hvcurveto
          -65 242 rmoveto
          hintmask 11111000
          22 20 -7 -27 -33 -23 -2 -24 hvcurveto
          -119 69 hlineto
          endchar
        </CharString>
        <CharString name="C">
          20 callsubr
          70 callsubr
          vstem
          -101 callsubr
          endchar
        </CharString>
        <CharString name="C.sc">
          -70 63 callgsubr
          vstem
          22 289 rmoveto
          -146 125 -148 178 102 117 48 84 37 vhcurveto
          -139 84 rlineto
          -48 -19 -52 -17 -42 hhcurveto
          -84 -50 65 73 65 41 71 91 41 54 -14 -52 22 hvcurveto
          130 93 rlineto
          75 -40 -90 49 -114 hhcurveto
          -194 -114 -143 -139 hvcurveto
          endchar
        </CharString>
        <CharString name="CR">
          -662 endchar
        </CharString>
        <CharString name="Cacute">
          20 callsubr
          200 -20 70 callsubr
          vstem
          -101 callsubr
          525 553 -103 callsubr
        </CharString>
        <CharString name="Ccaron">
          20 callsubr
          0 43 49 callgsubr
          22 198 hintmask 11011000
          -101 callsubr
          192 511 rmoveto
          hintmask 10111000
          -100 callgsubr
        </CharString>
        <CharString name="Ccedilla">
          29 40 callgsubr
          27 172 374 173 70 callsubr
          203 84 vstem
          242 -79 callsubr
          20 29 114 8 124 59 39 97 rlinecurve
          -159 95 rlineto
          -64 -24 -64 -23 -53 hhcurveto
          -102 -61 89 99 89 49 97 112 53 66 -19 -69 27 hvcurveto
          149 106 rlineto
          93 -49 -106 62 -136 hhcurveto
          -228 -135 -180 -173 -169 126 -171 186 -24 hvcurveto
          -45 -93 -75 callsubr
        </CharString>
        <CharString name="Ccircumflex">
          20 callsubr
          200 -20 70 callsubr
          vstem
          -101 callsubr
          275 396 -104 callsubr
        </CharString>
        <CharString name="Cdotaccent">
          20 callsubr
          50 150 70 callsubr
          85 170 vstem
          -101 callsubr
          453 403 -93 callgsubr
        </CharString>
        <CharString name="D">
          54 -2 callsubr
          hstem
          61 195 238 198 vstem
          -89 callsubr
          endchar
        </CharString>
        <CharString name="D.sc">
          -17 0 148 272 39 callgsubr
          223 173 vstem
          299 hmoveto
          194 128 113 172 157 -110 126 -212 hvcurveto
          -244 -568 hlineto
          393 285 rmoveto
          -79 -54 -58 -95 vhcurveto
          -74 272 74 hlineto
          93 56 -54 -81 hvcurveto
          endchar
        </CharString>
        <CharString name="Dcaron">
          54 -2 callsubr
          0 47 157 55 callsubr
          238 198 hintmask 11011100
          -89 callsubr
          -358 516 rmoveto
          hintmask 10111100
          -100 callgsubr
        </CharString>
        <CharString name="Dcroat">
          -64 callsubr
        </CharString>
        <CharString name="Ddotbelow">
          54 -27 callsubr
          63 170 370 38 callsubr
          4 170 64 198 vstem
          -89 callsubr
          -64 -569 -93 callgsubr
        </CharString>
        <CharString name="Delta">
          -21 37 callgsubr
          400 -16 callsubr
        </CharString>
        <CharString name="E">
          -65 -73 callsubr
          hstem
          61 195 vstem
          256 -101 callgsubr
          endchar
        </CharString>
        <CharString name="E.sc">
          -122 0 148 72 138 62 39 callgsubr
          vstem
          225 148 rmoveto
          72 236 138 -236 62 276 148 -446 -568 454 148 vlineto
          endchar
        </CharString>
        <CharString name="Eacute">
          -65 -73 callsubr
          204 -20 hstem
          -54 callsubr
          vstem
          256 -101 callgsubr
          -94 744 -103 callsubr
        </CharString>
        <CharString name="Ebreve">
          -65 -73 callsubr
          42 -6 callsubr
          61 195 -99 99 hintmask 11110100
          256 -101 callgsubr
          -251 663 rmoveto
          hintmask 11101010
          -90 callsubr
          hintmask 11110100
          -51 callsubr
        </CharString>
        <CharString name="Ecaron">
          -65 0 170 0 112 0 -30 callgsubr
          0 47 157 55 callsubr
          hintmask 01010110
          256 170 rmoveto
          -17 callsubr
          vlineto
          hintmask 10110110
          158 -258 100 302 170 -497 -710 506 170 vlineto
          -432 702 rmoveto
          hintmask 10101110
          -100 callgsubr
        </CharString>
        <CharString name="Ecircumflex">
          -65 -73 callsubr
          204 -20 hstem
          -54 callsubr
          vstem
          256 -101 callgsubr
          -336 587 -104 callsubr
        </CharString>
        <CharString name="Edblgrave">
          -65 -73 callsubr
          205 -20 hstem
          -54 callsubr
          vstem
          256 -101 callgsubr
          -188 571 -97 callsubr
        </CharString>
        <CharString name="Edieresis">
          -65 -73 callsubr
          55 140 41 callsubr
          -133 156 74 161 hintmask 11111010
          256 -101 callgsubr
          hintmask 11110110
          -288 595 -100 callsubr
        </CharString>
        <CharString name="Edotaccent">
          -65 -73 callsubr
          54 150 41 callsubr
          -25 170 hintmask 11111000
          256 -101 callgsubr
          hintmask 11110100
          -166 594 -93 callgsubr
        </CharString>
        <CharString name="Edotbelow">
          -65 -27 callsubr
          63 -69 callgsubr
          41 callsubr
          -24 170 hintmask 11111000
          256 -101 callgsubr
          hintmask 11110100
          -165 -383 -93 callgsubr
        </CharString>
        <CharString name="Egrave">
          -65 -73 callsubr
          205 -20 hstem
          -54 callsubr
          vstem
          256 -101 callgsubr
          -309 571 -86 callgsubr
          endchar
        </CharString>
        <CharString name="Einvertedbreve">
          -65 -73 callsubr
          42 -18 callgsubr
          61 195 -102 102 hintmask 11101100
          256 -101 callgsubr
          -254 663 rmoveto
          hintmask 11110010
          -92 callsubr
          hintmask 11101100
          -38 callsubr
        </CharString>
        <CharString name="Emacron">
          -65 -73 callsubr
          81 113 hstem
          -54 callsubr
          vstem
          256 -101 callgsubr
          -95 621 -61 callgsubr
        </CharString>
        <CharString name="Eng">
          73 60 callgsubr
          709 -20 21 55 callsubr
          222 195 hintmask 11101100
          483 44 rmoveto
          -47 vlineto
          -27 -15 -16 -25 -18 -18 8 12 -11 vhcurveto
          -78 -129 rlineto
          -35 41 53 -19 55 hhcurveto
          117 89 84 130 hvcurveto
          704 -195 -350 vlineto
          hintmask 11011100
          -267 351 rlineto
          -150 -20 callgsubr
          343 hlineto
          endchar
        </CharString>
        <CharString name="Eogonek">
          -64 -194 -21 215 170 0 112 0 158 0 100 0 170 41 callsubr
          122 117 hintmask 11001011
          530 28 callsubr
          170 -311 vlineto
          hintmask 10101011
          -17 callsubr
          158 -258 100 302 vlineto
          hintmask 11010111
          170 -497 -710 403 vlineto
          59 callgsubr
          endchar
        </CharString>
        <CharString name="Eth">
          -64 callsubr
        </CharString>
        <CharString name="Etilde">
          -65 -73 callsubr
          46 -49 callsubr
          61 195 hintmask 11110010
          256 -101 callgsubr
          -187 586 -39 callsubr
        </CharString>
        <CharString name="Euro">
          140 -6 173 54 100 43 100 77 173 hstem
          74 464 rmoveto
          -40 -100 rlineto
          68 hlineto
          -17 1 -13 1 -13 vhcurveto
          -30 hlineto
          -40 -100 rlineto
          97 hlineto
          -126 52 121 -101 155 hhcurveto
          121 141 60 105 42 hvcurveto
          -159 95 rlineto
          -64 -24 -64 -23 -53 hhcurveto
          -50 -39 21 33 -28 hvcurveto
          93 hlineto
          40 100 rlineto
          -177 hlineto
          -1 11 -1 11 21 vvcurveto
          167 hlineto
          40 100 rlineto
          -180 hlineto
          44 25 44 33 65 hhcurveto
          53 66 -19 -69 27 hvcurveto
          149 106 rlineto
          93 -49 -106 62 -136 hhcurveto
          -183 -122 -116 -134 -42 hvcurveto
          endchar
        </CharString>
        <CharString name="F">
          -99 21 -21 264 158 118 38 callsubr
          vstem
          256 hmoveto
          264 43 callsubr
          -710 vlineto
          endchar
        </CharString>
        <CharString name="F.sc">
          -154 21 -21 204 138 78 39 callgsubr
          vstem
          225 hmoveto
          204 219 138 -219 78 267 148 -437 -568 vlineto
          endchar
        </CharString>
        <CharString name="G">
          77 -5 -45 callsubr
          hstemhm
          23 198 hintmask 01111000
          -50 callsubr
          hintmask 10111000
          -98 callsubr
          endchar
        </CharString>
        <CharString name="G.alt">
          49 -5 173 60 170 144 173 70 callsubr
          vstem
          381 -5 rmoveto
          190 122 142 172 hvcurveto
          89 -322 -170 111 vlineto
          -31 -18 -48 -29 -55 hhcurveto
          -105 -36 105 83 92 45 94 97 88 35 -79 -14 6 hvcurveto
          155 121 rlineto
          94 -53 -97 51 -122 hhcurveto
          -221 -131 -174 -180 -190 147 -176 212 hvcurveto
          endchar
        </CharString>
        <CharString name="G.sc">
          -40 -4 151 -126 -21 184 122 115 151 hstemhm
          22 173 hintmask 01111000
          448 hmoveto
          141 306 -258 -122 94 hlineto
          hintmask 10111000
          -24 -31 -34 -13 -35 hhcurveto
          -77 -53 53 83 83 52 55 73 48 49 -29 -41 21 hvcurveto
          127 97 rlineto
          77 -41 -91 47 -107 hhcurveto
          -171 -133 -122 -161 -159 133 -134 155 53 43 13 32 42 hvcurveto
          endchar
        </CharString>
        <CharString name="Gacute">
          77 -5 -45 callsubr
          199 -20 hstemhm
          23 198 hintmask 01111100
          -50 callsubr
          hintmask 10111100
          -98 callsubr
          hintmask 01111100
          4 855 -103 callsubr
        </CharString>
        <CharString name="Gbreve">
          77 -5 -45 callsubr
          37 -6 callsubr
          23 198 hintmask 01111010
          -50 callsubr
          hintmask 10111010
          -98 callsubr
          hintmask 01111010
          -154 774 rmoveto
          hintmask 10110110
          -90 callsubr
          hintmask 10111010
          -51 callsubr
        </CharString>
        <CharString name="Gcircumflex">
          77 -5 -45 callsubr
          199 -20 hstemhm
          23 198 hintmask 01111100
          -50 callsubr
          hintmask 10111100
          -98 callsubr
          hintmask 01111100
          -239 698 -104 callsubr
        </CharString>
        <CharString name="Gcommaaccent">
          77 -3 callgsubr
          41 -45 callsubr
          hstemhm
          23 198 71 157 hintmask 10111110
          -50 callsubr
          hintmask 11011110
          -98 callsubr
          hintmask 10111110
          -148 -272 rmoveto
          -83 callsubr
        </CharString>
        <CharString name="Gdotaccent">
          77 -5 -45 callsubr
          49 150 hstemhm
          23 198 85 170 hintmask 01111110
          -50 callsubr
          hintmask 10111110
          -98 callsubr
          hintmask 01111110
          -67 705 -93 callgsubr
        </CharString>
        <CharString name="H">
          88 21 69 callgsubr
          262 -20 hstem
          -54 callsubr
          238 195 vstem
          494 -60 callgsubr
          endchar
        </CharString>
        <CharString name="H.sc">
          10 21 -21 216 149 203 -20 hstem
          55 170 222 170 vstem
          447 568 rmoveto
          -203 -222 203 -170 -568 170 216 222 -216 170 568 vlineto
          endchar
        </CharString>
        <CharString name="Hbar">
          94 21 69 callgsubr
          90 88 84 -20 hstem
          64 195 238 195 vstem
          497 -12 callsubr
          -84 -238 84 -195 -84 -50 -88 50 -538 195 278 238 -278 195 538 50 88 -50 84 vlineto
          -433 -262 rmoveto
          90 238 -90 vlineto
          endchar
        </CharString>
        <CharString name="Hcircumflex">
          88 21 69 callgsubr
          262 -20 223 -20 hstem
          -54 callsubr
          238 195 vstem
          494 -60 callgsubr
          -396 46 -104 callsubr
        </CharString>
        <CharString name="Hdotbelow">
          88 -27 callsubr
          84 69 callgsubr
          262 -20 hstem
          -54 callsubr
          31 170 37 195 vstem
          494 -60 callgsubr
          -232 -923 -93 callgsubr
        </CharString>
        <CharString name="I">
          -21 callgsubr
          hstem
          -54 callsubr
          vstem
          -68 callgsubr
          endchar
        </CharString>
        <CharString name="I.sc">
          -382 -6 callgsubr
          55 170 vstem
          225 hmoveto
          568 78 callsubr
        </CharString>
        <CharString name="IJ">
          153 -11 173 -141 -21 710 55 callsubr
          311 195 hintmask 01111000
          -68 callgsubr
          257 33 rmoveto
          hintmask 10111000
          -84 callsubr
          endchar
        </CharString>
        <CharString name="Iacute">
          -21 callgsubr
          224 -20 hstem
          -54 callsubr
          vstem
          -68 callgsubr
          254 52 callsubr
          endchar
        </CharString>
        <CharString name="Ibreve">
          -345 21 -21 710 66 callsubr
          61 43 callgsubr
          97 833 rmoveto
          hintmask 11011000
          -90 callsubr
          hintmask 11101000
          -51 callsubr
        </CharString>
        <CharString name="Icircumflex">
          -21 callgsubr
          224 -20 hstem
          -54 callsubr
          vstem
          -68 callgsubr
          12 757 -104 callsubr
        </CharString>
        <CharString name="Idblgrave">
          -21 callgsubr
          225 -20 hstem
          -54 callsubr
          vstem
          -68 callgsubr
          176 741 -97 callsubr
        </CharString>
        <CharString name="Idieresis">
          -21 callgsubr
          75 140 hstemhm
          -35 156 -60 195 -61 156 hintmask 11101000
          -68 callgsubr
          hintmask 11110100
          60 765 -100 callsubr
        </CharString>
        <CharString name="Idotaccent">
          -21 callgsubr
          74 150 41 callsubr
          -183 170 hintmask 11110000
          -68 callgsubr
          hintmask 11101000
          182 764 -93 callgsubr
        </CharString>
        <CharString name="Idotbelow">
          -345 -27 callsubr
          84 -30 callsubr
          hstemhm
          61 181 -181 43 callgsubr
          hintmask 11110000
          181 -213 -93 callgsubr
        </CharString>
        <CharString name="Igrave">
          -21 callgsubr
          225 -20 hstem
          -54 callsubr
          vstem
          -68 callgsubr
          39 741 -86 callgsubr
          endchar
        </CharString>
        <CharString name="Iinvertedbreve">
          -21 callgsubr
          62 -18 callgsubr
          61 195 hintmask 11011000
          -68 callgsubr
          98 833 rmoveto
          hintmask 11101000
          -92 callsubr
          hintmask 11011000
          -38 callsubr
        </CharString>
        <CharString name="Imacron">
          -21 callgsubr
          101 113 hstem
          -54 callsubr
          vstem
          -68 callgsubr
          253 791 -61 callgsubr
        </CharString>
        <CharString name="Iogonek">
          -344 -194 -21 236 -30 callsubr
          hstemhm
          61 123 -123 195 hintmask 11110000
          219 62 callsubr
          hintmask 11101000
          23 26 28 46 27 vhcurveto
          710 -48 callgsubr
          92 vlineto
          59 callgsubr
          endchar
        </CharString>
        <CharString name="Itilde">
          -21 callgsubr
          66 -49 callsubr
          61 195 hintmask 11100100
          -68 callgsubr
          161 756 -74 callsubr
        </CharString>
        <CharString name="J">
          -164 -11 173 548 -20 hstem
          250 195 vstem
          1 33 rmoveto
          -84 callsubr
          endchar
        </CharString>
        <CharString name="J.sc">
          -212 -9 151 426 -20 hstem
          231 170 vstem
          4 26 rmoveto
          -23 38 46 -12 55 hhcurveto
          230 28 115 173 hvcurveto
          289 -170 -289 vlineto
          -101 -11 -36 -77 -52 -43 20 3 -8 vhcurveto
          endchar
        </CharString>
        <CharString name="Jcircumflex">
          -164 -11 173 548 -20 224 -20 hstem
          250 195 vstem
          1 33 rmoveto
          -84 callsubr
          223 565 -104 callsubr
        </CharString>
        <CharString name="K">
          28 5 callsubr
          -54 callsubr
          vstem
          256 hmoveto
          205 vlineto
          54 56 176 -261 rlineto
          224 hlineto
          -276 392 258 318 rlineto
          -220 hlineto
          -216 -270 rlineto
          270 -48 callgsubr
          vlineto
          endchar
        </CharString>
        <CharString name="K.sc">
          -41 -6 callgsubr
          55 170 vstem
          225 hmoveto
          168 vlineto
          60 50 172 -218 rlineto
          178 hlineto
          -249 313 233 255 rlineto
          -175 hlineto
          -219 -218 rlineto
          218 78 callsubr
        </CharString>
        <CharString name="Kcommaaccent">
          28 -3 callgsubr
          67 -30 callsubr
          hstem
          -54 callsubr
          32 157 vstem
          256 hmoveto
          205 vlineto
          54 56 176 -261 rlineto
          224 hlineto
          -276 392 258 318 rlineto
          -220 hlineto
          -216 -270 rlineto
          270 -48 callgsubr
          vlineto
          330 -213 rmoveto
          -83 callsubr
        </CharString>
        <CharString name="L">
          -77 37 callgsubr
          -54 callsubr
          vstem
          -60 callsubr
          endchar
        </CharString>
        <CharString name="L.sc">
          -184 0 148 420 -20 hstem
          55 170 vstem
          473 hmoveto
          148 -248 420 78 callsubr
        </CharString>
        <CharString name="Lacute">
          -77 24 callsubr
          224 -20 hstem
          -54 callsubr
          vstem
          -60 callsubr
          467 52 callsubr
          endchar
        </CharString>
        <CharString name="Lcaron">
          -77 24 callsubr
          39 55 callsubr
          hintmask 11010000
          -60 callsubr
          hintmask 10110000
          477 729 -103 callsubr
        </CharString>
        <CharString name="Lcommaaccent">
          -77 -3 callgsubr
          46 170 540 55 callsubr
          -1 157 hintmask 11110000
          -60 callsubr
          297 -213 rmoveto
          hintmask 11101000
          -83 callsubr
        </CharString>
        <CharString name="Ldot">
          -77 0 170 147 184 209 -20 hstem
          -54 callsubr
          108 154 vstem
          -60 callsubr
          457 317 rmoveto
          -40 callsubr
          endchar
        </CharString>
        <CharString name="Lslash">
          -65 37 callgsubr
          73 195 vstem
          590 hmoveto
          170 -322 200 vlineto
          114 56 -43 101 -71 -35 rlineto
          218 -195 -313 vlineto
          -90 -44 43 -101 47 23 rlineto
          -275 vlineto
          endchar
        </CharString>
        <CharString name="M">
          192 5 callsubr
          -54 callsubr
          342 195 vstem
          793 -26 callgsubr
        </CharString>
        <CharString name="M.sc">
          105 -6 callgsubr
          55 170 317 170 vstem
          712 hmoveto
          568 -185 vlineto
          -143 -250 -143 250 rlineto
          -186 -568 170 275 hlineto
          113 -189 rlineto
          91 hlineto
          113 189 rlineto
          -275 vlineto
          endchar
        </CharString>
        <CharString name="N">
          92 5 callsubr
          -54 callsubr
          242 195 vstem
          538 -88 callgsubr
          endchar
        </CharString>
        <CharString name="N.sc">
          15 -6 callgsubr
          55 170 227 170 vstem
          487 hmoveto
          135 568 -170 -262 hlineto
          -264 262 rlineto
          -133 -568 170 253 hlineto
          endchar
        </CharString>
        <CharString name="NULL">
          -662 endchar
        </CharString>
        <CharString name="Nacute">
          60 callsubr
          223 -20 hstem
          -54 callsubr
          242 195 vstem
          538 -88 callgsubr
          275 564 -103 callsubr
        </CharString>
        <CharString name="Ncaron">
          60 callsubr
          223 -20 hstem
          -54 callsubr
          242 195 vstem
          538 -88 callgsubr
          -63 522 rmoveto
          -100 callgsubr
        </CharString>
        <CharString name="Ncommaaccent">
          92 -3 callgsubr
          67 -30 callsubr
          hstem
          -54 callsubr
          36 157 49 195 vstem
          538 -88 callgsubr
          139 -562 rmoveto
          -83 callsubr
        </CharString>
        <CharString name="Ndotaccent">
          60 callsubr
          73 150 hstem
          -54 callsubr
          33 170 39 195 vstem
          538 -88 callgsubr
          203 414 -93 callgsubr
        </CharString>
        <CharString name="Ntilde">
          60 callsubr
          65 -49 callsubr
          61 195 242 195 hintmask 11100110
          538 -88 callgsubr
          182 406 -90 callgsubr
        </CharString>
        <CharString name="O">
          103 -67 callsubr
          hstem
          37 callsubr
          vstem
          -106 callgsubr
          endchar
        </CharString>
        <CharString name="O.sc">
          -6 63 callgsubr
          266 173 vstem
          327 -5 rmoveto
          180 127 138 148 145 -120 145 -184 -178 -130 -136 -150 -147 123 -143 182 hvcurveto
          -132 288 rmoveto
          68 42 69 91 88 45 -65 -70 -68 -41 -71 -91 -90 -44 68 69 vhcurveto
          endchar
        </CharString>
        <CharString name="OE">
          368 -5 175 -149 -21 276 170 94 170 5 -20 hstemhm
          22 198 285 204 hintmask 10110110
          709 170 rmoveto
          106 228 170 -228 94 282 170 -477 -40 vlineto
          hintmask 10101110
          28 -44 -50 17 -55 hhcurveto
          -199 -144 -171 -188 -183 136 -178 203 56 52 18 28 45 hvcurveto
          hintmask 01110110
          -41 486 vlineto
          hintmask 10110110
          170 vlineto
          -637 -2 rmoveto
          -97 -46 91 95 93 44 95 98 96 47 -90 -96 -93 -43 -95 -99 hvcurveto
          endchar
        </CharString>
        <CharString name="Oacute">
          103 -67 callsubr
          200 -20 hstem
          37 callsubr
          vstem
          -106 callgsubr
          330 560 -103 callsubr
        </CharString>
        <CharString name="Obreve">
          103 -67 callsubr
          38 -6 callsubr
          37 callsubr
          hintmask 11101100
          -106 callgsubr
          168 479 rmoveto
          hintmask 11011100
          -90 callsubr
          hintmask 11101100
          -51 callsubr
        </CharString>
        <CharString name="Ocircumflex">
          103 -67 callsubr
          200 -20 hstem
          37 callsubr
          vstem
          -106 callgsubr
          79 403 -104 callsubr
        </CharString>
        <CharString name="Odblgrave">
          103 -67 callsubr
          201 -20 hstem
          37 callsubr
          vstem
          -106 callgsubr
          233 387 -97 callsubr
        </CharString>
        <CharString name="Odieresis">
          103 -67 callsubr
          51 140 hstemhm
          22 198 -29 -18 callsubr
          -32 198 hintmask 11110010
          -106 callgsubr
          hintmask 11101100
          127 411 -100 callsubr
        </CharString>
        <CharString name="Odotbelow">
          103 -27 callsubr
          57 173 374 173 70 callsubr
          75 170 80 198 vstem
          -106 callgsubr
          245 -567 -93 callgsubr
        </CharString>
        <CharString name="Ograve">
          103 -67 callsubr
          201 -20 hstem
          37 callsubr
          vstem
          -106 callgsubr
          112 387 -86 callgsubr
          endchar
        </CharString>
        <CharString name="Ohungarumlaut">
          103 -67 callsubr
          201 -20 hstem
          37 callsubr
          vstem
          -106 callgsubr
          194 561 -70 callsubr
        </CharString>
        <CharString name="Oinvertedbreve">
          103 -67 callsubr
          38 -18 callgsubr
          37 callsubr
          hintmask 11011100
          -106 callgsubr
          164 479 rmoveto
          hintmask 11101100
          -92 callsubr
          hintmask 11011100
          -38 callsubr
        </CharString>
        <CharString name="Omacron">
          103 -67 callsubr
          77 113 hstem
          37 callsubr
          vstem
          -106 callgsubr
          322 437 -61 callgsubr
        </CharString>
        <CharString name="Omega">
          130 0 130 413 32 callgsubr
          130 hlineto
          -79 34 -49 107 59 callsubr
          -107 -79 -34 vhcurveto
          -130 329 130 -149 vlineto
          86 50 53 88 13 callgsubr
          -88 86 -50 vhcurveto
          -149 hlineto
          endchar
        </CharString>
        <CharString name="Oogonek">
          103 -193 -21 755 173 70 callsubr
          16 117 192 198 vstem
          388 29 callgsubr
          193 18 134 162 176 vvcurveto
          181 -142 181 -216 -211 -152 -170 -188 -165 116 -162 180 -30 vhcurveto
          -54 -34 -28 -41 -38 -39 callgsubr
          -168 568 rmoveto
          93 50 94 112 110 53 -89 -96 -93 -49 -96 -113 -111 -52 92 95 vhcurveto
          endchar
        </CharString>
        <CharString name="Oslash">
          49 callsubr
          hstemhm
          21 198 325 198 hintmask 10011100
          535 -12 callsubr
          -16 -22 rlineto
          hintmask 01101100
          -11 callgsubr
          hintmask 10011100
          6 callsubr
          -526 -356 rmoveto
          hintmask 10101100
          -37 callgsubr
        </CharString>
        <CharString name="Oslashacute">
          49 callsubr
          224 -20 hstemhm
          21 198 325 198 hintmask 10011110
          535 -12 callsubr
          -16 -22 rlineto
          hintmask 01101110
          -11 callgsubr
          hintmask 10011110
          6 callsubr
          -207 204 -102 callgsubr
          -220 -386 rmoveto
          hintmask 10101110
          -37 callgsubr
        </CharString>
        <CharString name="Otilde">
          103 -67 callsubr
          42 -49 callsubr
          37 callsubr
          hintmask 11100110
          -106 callgsubr
          232 402 -90 callgsubr
        </CharString>
        <CharString name="P">
          -39 2 callsubr
          hstem
          61 195 152 198 vstem
          256 -33 callsubr
        </CharString>
        <CharString name="P.sc">
          -102 21 -21 169 149 102 39 callgsubr
          146 173 vstem
          225 hmoveto
          169 109 vlineto
          126 84 98 102 98 -90 101 -124 hvcurveto
          -275 -568 hlineto
          170 420 rmoveto
          94 hlineto
          23 29 -8 -43 -43 -24 -8 -24 hvcurveto
          -98 hlineto
          endchar
        </CharString>
        <CharString name="Q">
          103 -5 173 -147 -21 542 173 hstemhm
          37 callsubr
          hintmask 01111000
          579 hmoveto
          182 hlineto
          -108 117 rlineto
          57 64 33 84 87 vvcurveto
          181 -142 182 -216 -211 -152 -171 -188 vhcurveto
          hintmask 10111000
          -183 144 -178 215 61 56 14 25 49 vhcurveto
          hintmask 01111000
          hintmask 10111000
          -164 134 rmoveto
          -111 -52 91 95 93 50 95 112 110 53 -90 -96 -34 -7 -35 -14 -30 hvcurveto
          -39 43 rlineto
          -182 hlineto
          117 -128 rlineto
          -3 -11 -13 -1 -13 hhcurveto
          endchar
        </CharString>
        <CharString name="Q.sc">
          -4 -4 151 -126 -21 421 151 hstemhm
          22 173 266 173 hintmask 01111000
          507 hmoveto
          159 hlineto
          -100 102 rlineto
          43 50 25 63 66 vvcurveto
          145 -120 146 -184 -178 -130 -137 -150 vhcurveto
          hintmask 10111000
          -147 123 -142 182 55 50 13 22 44 vhcurveto
          hintmask 01111000
          hintmask 10111000
          -147 116 rmoveto
          -90 -44 67 69 68 42 70 91 88 45 -66 -70 -22 -4 -22 -9 -19 hvcurveto
          -26 27 rlineto
          -160 hlineto
          97 -99 rlineto
          -2 -9 -10 -1 -11 hhcurveto
          endchar
        </CharString>
        <CharString name="R">
          -22 callgsubr
          hstem
          61 195 172 198 vstem
          -102 callsubr
          endchar
        </CharString>
        <CharString name="R.sc">
          -47 21 -21 169 149 102 39 callgsubr
          163 173 vstem
          225 hmoveto
          169 72 vlineto
          122 -169 rlineto
          193 hlineto
          -145 207 rlineto
          59 39 35 59 64 vvcurveto
          98 -89 101 -125 vhcurveto
          -292 -568 hlineto
          170 420 rmoveto
          111 hlineto
          24 28 -16 -35 -35 -23 -16 -24 hvcurveto
          -116 hlineto
          endchar
        </CharString>
        <CharString name="Racute">
          -22 callgsubr
          203 -20 hstem
          -54 callsubr
          172 198 vstem
          -102 callsubr
          220 525 -103 callsubr
        </CharString>
        <CharString name="Rcaron">
          -22 callgsubr
          0 46 157 55 callsubr
          172 198 hintmask 11101110
          -102 callsubr
          -118 483 rmoveto
          hintmask 11011110
          -100 callgsubr
        </CharString>
        <CharString name="Rcommaaccent">
          13 -3 callgsubr
          67 12 callgsubr
          41 callsubr
          16 157 -1 198 hintmask 11111010
          -102 callsubr
          119 -601 rmoveto
          hintmask 11111100
          -83 callsubr
        </CharString>
        <CharString name="Rdblgrave">
          -22 callgsubr
          205 -20 hstem
          -54 callsubr
          172 198 vstem
          -102 callsubr
          128 353 -97 callsubr
        </CharString>
        <CharString name="Rdotbelow">
          13 -27 callsubr
          84 12 callgsubr
          41 callsubr
          4 170 -2 198 hintmask 11111010
          -102 callsubr
          hintmask 11111100
          174 -601 -93 callgsubr
        </CharString>
        <CharString name="Rinvertedbreve">
          -22 callgsubr
          42 -18 callgsubr
          61 195 -93 93 172 198 hintmask 11101101
          -102 callsubr
          66 445 rmoveto
          hintmask 11110011
          -92 callsubr
          hintmask 11101101
          -38 callsubr
        </CharString>
        <CharString name="S">
          -45 -9 12 callsubr
          hstem
          44 202 136 210 vstem
          -105 callsubr
          endchar
        </CharString>
        <CharString name="S.sc">
          -121 -8 154 276 151 hstem
          42 176 114 184 vstem
          500 512 rmoveto
          25 -55 -85 36 -89 hhcurveto
          -121 -108 -67 -124 -86 47 -46 108 -34 hvcurveto
          73 -23 62 -5 -27 vvcurveto
          -8 -13 -7 -34 -94 -91 47 13 -11 vhcurveto
          -74 -149 rlineto
          -38 73 105 -27 89 hhcurveto
          114 120 44 141 107 -72 38 -113 33 hvcurveto
          -70 21 -43 5 24 vvcurveto
          13 19 4 29 72 80 -45 -6 9 vhcurveto
          endchar
        </CharString>
        <CharString name="Sacute">
          -45 -9 12 callsubr
          198 -20 hstem
          44 202 136 210 vstem
          -105 callsubr
          -7 436 -103 callsubr
        </CharString>
        <CharString name="Scaron">
          -45 -9 12 callsubr
          0 41 49 callgsubr
          44 202 136 210 hintmask 11011100
          -105 callsubr
          -345 394 rmoveto
          hintmask 10111100
          -100 callgsubr
        </CharString>
        <CharString name="Schwa">
          96 -5 170 103 143 132 171 hstem
          375 -5 rmoveto
          236 125 192 179 157 -129 191 -232 -161 -115 -77 -116 -54 hvcurveto
          203 -57 rlineto
          50 15 58 29 56 hhcurveto
          70 67 -38 -94 9 hvcurveto
          -505 hlineto
          -3 -20 -3 -28 -25 vvcurveto
          -149 126 -194 237 vhcurveto
          3 170 rmoveto
          -80 -58 38 65 -12 hvcurveto
          290 hlineto
          -65 -11 -54 -38 -75 hhcurveto
          endchar
        </CharString>
        <CharString name="Scircumflex">
          -45 -9 12 callsubr
          198 -20 hstem
          44 202 136 210 vstem
          -105 callsubr
          -249 279 -104 callsubr
        </CharString>
        <CharString name="Sdotbelow">
          -45 -27 callsubr
          54 12 callsubr
          hstemhm
          44 202 -28 170 -6 210 hintmask 11110100
          -105 callsubr
          hintmask 11101000
          -103 -691 -93 callgsubr
        </CharString>
        <CharString name="T">
          -38 38 callgsubr
          hstem
          215 195 vstem
          -44 callsubr
          endchar
        </CharString>
        <CharString name="T.sc">
          -96 21 -21 420 148 hstem
          198 171 vstem
          554 568 rmoveto
          -542 -148 186 -420 171 420 185 hlineto
          endchar
        </CharString>
        <CharString name="Tbar">
          -16 21 -21 268 88 184 170 hstem
          226 195 vstem
          625 -12 callsubr
          -604 -170 205 -184 -165 -88 165 -268 195 268 164 88 -164 184 204 hlineto
          endchar
        </CharString>
        <CharString name="Tcaron">
          -38 38 callgsubr
          0 47 49 callgsubr
          215 195 hintmask 11011000
          -44 callsubr
          -475 332 rmoveto
          hintmask 10111000
          -100 callgsubr
        </CharString>
        <CharString name="Tdotbelow">
          -38 -27 callsubr
          84 41 callgsubr
          hstemhm
          215 179 -179 195 hintmask 11110000
          614 -12 callsubr
          -604 -170 205 -540 hlineto
          hintmask 11101000
          -14 callsubr
          204 hlineto
          hintmask 11110000
          -220 -753 -93 callgsubr
        </CharString>
        <CharString name="Thorn">
          -57 21 -21 101 170 151 170 118 -20 hstem
          -54 callsubr
          140 195 vstem
          256 592 rmoveto
          118 -195 -20 callgsubr
          101 101 vlineto
          140 94 119 127 121 -100 124 -139 hvcurveto
          -96 -321 rmoveto
          151 86 vlineto
          25 29 -26 -49 -47 -24 -29 -25 hvcurveto
          endchar
        </CharString>
        <CharString name="U">
          -28 callgsubr
          hstem
          -5 callsubr
          195 vstem
          -105 callgsubr
          endchar
        </CharString>
        <CharString name="U.sc">
          -7 -5 151 422 -20 hstem
          47 170 221 170 vstem
          327 146 rmoveto
          -79 -31 60 69 hvcurveto
          293 -170 -293 vlineto
          -151 81 -129 199 193 88 121 159 vhcurveto
          293 -170 -293 vlineto
          -67 -29 -62 -82 vhcurveto
          endchar
        </CharString>
        <CharString name="Uacute">
          -28 callgsubr
          224 -20 hstem
          -5 callsubr
          195 vstem
          -105 callgsubr
          157 747 -103 callsubr
        </CharString>
        <CharString name="Ubreve">
          81 -6 173 543 66 callsubr
          -5 callsubr
          33 -33 195 hintmask 11101010
          -105 callgsubr
          666 vmoveto
          hintmask 11011100
          -90 callsubr
          hintmask 11101100
          -51 callsubr
        </CharString>
        <CharString name="Ucircumflex">
          -28 callgsubr
          224 -20 hstem
          -5 callsubr
          195 vstem
          -105 callgsubr
          -85 590 -104 callsubr
        </CharString>
        <CharString name="Udblgrave">
          -28 callgsubr
          225 -20 hstem
          -5 callsubr
          195 vstem
          -105 callgsubr
          74 574 -97 callsubr
        </CharString>
        <CharString name="Udieresis">
          -28 callgsubr
          75 140 hstemhm
          51 195 -68 -18 callsubr
          -67 195 hintmask 11110010
          -105 callgsubr
          hintmask 11101100
          -37 598 -100 callsubr
        </CharString>
        <CharString name="Udotbelow">
          81 -27 callsubr
          57 -4 callgsubr
          hstem
          51 195 36 170 45 195 vstem
          -105 callgsubr
          81 -380 -93 callgsubr
        </CharString>
        <CharString name="Ugrave">
          -28 callgsubr
          225 -20 hstem
          -5 callsubr
          195 vstem
          -105 callgsubr
          -58 574 -86 callgsubr
          endchar
        </CharString>
        <CharString name="Uhungarumlaut">
          -28 callgsubr
          225 -20 hstem
          -5 callsubr
          195 vstem
          -105 callgsubr
          26 748 -70 callsubr
        </CharString>
        <CharString name="Uinvertedbreve">
          -28 callgsubr
          62 -18 callgsubr
          -5 callsubr
          195 hintmask 11011100
          -105 callgsubr
          666 vmoveto
          hintmask 11101100
          -92 callsubr
          hintmask 11011100
          -38 callsubr
        </CharString>
        <CharString name="Umacron">
          -28 callgsubr
          101 113 hstem
          -5 callsubr
          195 vstem
          -105 callgsubr
          156 624 -61 callgsubr
        </CharString>
        <CharString name="Uogonek">
          81 -193 -21 924 -20 hstemhm
          51 195 -13 117 147 195 hintmask 11011000
          385 29 callgsubr
          191 18 88 146 185 vvcurveto
          365 -195 -365 vlineto
          -92 -34 -86 -92 vhcurveto
          hintmask 11101000
          -90 -35 84 94 hvcurveto
          365 -195 -365 vlineto
          -171 77 -151 185 -25 vhcurveto
          hintmask 11011000
          -53 -34 -27 -40 -38 -39 callgsubr
          endchar
        </CharString>
        <CharString name="Uring">
          -28 callgsubr
          50 54 66 54 hstem
          51 195 8 77 80 77 9 195 vstem
          -105 callgsubr
          -117 660 -89 callgsubr
          endchar
        </CharString>
        <CharString name="Utilde">
          -28 callgsubr
          66 -49 callsubr
          -5 callsubr
          195 hintmask 11100110
          -105 callgsubr
          64 589 -90 callgsubr
        </CharString>
        <CharString name="V">
          10 5 callsubr
          -8 -12 callsubr
          264 -710 rlineto
          162 hlineto
          261 710 rlineto
          -205 hlineto
          -137 -465 -139 465 rlineto
          endchar
        </CharString>
        <CharString name="V.sc">
          -62 -6 callgsubr
          -9 568 rmoveto
          239 -568 rlineto
          142 hlineto
          236 568 rlineto
          -179 hlineto
          -128 -327 -130 327 rlineto
          endchar
        </CharString>
        <CharString name="W">
          395 5 callsubr
          -96 callgsubr
          endchar
        </CharString>
        <CharString name="W.alt">
          487 21 -21 22 -21 709 -20 21 -20 hstemhm
          hintmask 10010000
          927 711 rmoveto
          -118 -415 rlineto
          hintmask 10100000
          -129 414 rlineto
          -212 hlineto
          -128 -415 -119 415 rlineto
          -221 hlineto
          219 -710 rlineto
          202 hlineto
          153 391 rlineto
          hintmask 01010000
          154 -390 rlineto
          202 hlineto
          219 710 rlineto
          endchar
        </CharString>
        <CharString name="W.sc">
          287 -6 callgsubr
          364 293 rmoveto
          -39 -89 -152 364 rlineto
          -184 hlineto
          251 -568 rlineto
          142 hlineto
          92 192 93 -192 rlineto
          141 hlineto
          252 568 rlineto
          -186 hlineto
          -150 -364 -41 89 106 275 rlineto
          -157 hlineto
          -58 -171 -58 171 rlineto
          -156 hlineto
          endchar
        </CharString>
        <CharString name="Wacute">
          395 -71 callgsubr
          224 -20 hstem
          -96 callgsubr
          398 204 -103 callsubr
        </CharString>
        <CharString name="Wcircumflex">
          395 -71 callgsubr
          224 -20 hstem
          -96 callgsubr
          156 47 -104 callsubr
        </CharString>
        <CharString name="Wdieresis">
          395 -71 callgsubr
          75 140 hstem
          335 61 callsubr
          -96 callgsubr
          204 55 -100 callsubr
        </CharString>
        <CharString name="Wgrave">
          395 -71 callgsubr
          225 -20 hstem
          -96 callgsubr
          183 31 -86 callgsubr
          endchar
        </CharString>
        <CharString name="X">
          -46 callgsubr
        </CharString>
        <CharString name="X.sc">
          -67 -6 callgsubr
          -7 568 rmoveto
          215 -288 -208 -280 rlineto
          185 hlineto
          113 161 113 -161 rlineto
          184 hlineto
          -208 280 215 288 rlineto
          -184 hlineto
          -120 -169 -121 169 rlineto
          endchar
        </CharString>
        <CharString name="Y">
          4 5 callsubr
          235 194 vstem
          -84 callgsubr
          endchar
        </CharString>
        <CharString name="Y.sc">
          -73 -6 callgsubr
          209 170 vstem
          -9 568 rmoveto
          218 -382 rlineto
          -186 170 185 vlineto
          221 383 rlineto
          -185 hlineto
          -121 -237 -119 237 rlineto
          endchar
        </CharString>
        <CharString name="Yacute">
          4 -71 callgsubr
          224 -20 hstem
          235 194 vstem
          -84 callgsubr
          284 204 -103 callsubr
        </CharString>
        <CharString name="Ycircumflex">
          4 -71 callgsubr
          224 -20 hstem
          235 194 vstem
          -84 callgsubr
          42 47 -104 callsubr
        </CharString>
        <CharString name="Ydieresis">
          4 -71 callgsubr
          75 140 hstemhm
          139 156 -60 194 -60 156 hintmask 11101000
          -84 callgsubr
          hintmask 11110100
          90 55 -100 callsubr
        </CharString>
        <CharString name="Ygrave">
          4 -71 callgsubr
          225 -20 hstem
          235 194 vstem
          -84 callgsubr
          69 31 -86 callgsubr
          endchar
        </CharString>
        <CharString name="Ytilde">
          4 -71 callgsubr
          66 -49 callsubr
          235 194 hintmask 11100100
          -84 callgsubr
          191 46 -74 callsubr
        </CharString>
        <CharString name="Z">
          55 callgsubr
          hstem
          27 hmoveto
          -83 callgsubr
          endchar
        </CharString>
        <CharString name="Z.sc">
          -93 0 148 272 148 hstem
          29 hmoveto
          507 148 -293 hlineto
          288 294 rlineto
          126 -489 -148 292 vlineto
          -305 -294 rlineto
          endchar
        </CharString>
        <CharString name="Zacute">
          55 callgsubr
          204 -20 hstem
          27 hmoveto
          -83 callgsubr
          450 769 -103 callsubr
        </CharString>
        <CharString name="Zcaron">
          55 callgsubr
          0 47 49 callgsubr
          hintmask 11010000
          27 hmoveto
          -83 callgsubr
          112 727 rmoveto
          hintmask 10110000
          -100 callgsubr
        </CharString>
        <CharString name="Zdotaccent">
          55 callgsubr
          54 150 hstem
          235 170 vstem
          27 hmoveto
          -83 callgsubr
          378 619 -93 callgsubr
        </CharString>
        <CharString name="Zdotbelow">
          -40 -27 callsubr
          63 23 callsubr
          hstem
          226 170 vstem
          27 hmoveto
          -83 callgsubr
          369 -358 -93 callgsubr
        </CharString>
        <CharString name="a">
          -62 callsubr
          hstem
          -25 callgsubr
          -12 callgsubr
          -107 callgsubr
          endchar
        </CharString>
        <CharString name="a.alt">
          -15 -10 -8 callgsubr
          hstemhm
          -14 callgsubr
          hintmask 10111000
          268 -10 rmoveto
          69 43 26 53 30 hvcurveto
          hintmask 01111000
          -69 189 518 -190 -70 31 callsubr
          hintmask 10111000
          -161 103 -113 145 vhcurveto
          142 214 rmoveto
          9 callsubr
        </CharString>
        <CharString name="a.alt2">
          -78 -10 136 -105 -21 236 103 69 128 4 callsubr
          hintmask 01111100
          542 hmoveto
          312 vlineto
          148 -95 76 -167 -90 -77 -22 -45 -70 vhcurveto
          55 -118 rlineto
          37 56 48 20 59 hhcurveto
          64 27 -24 -49 hvcurveto
          -16 vlineto
          13 -27 -38 7 -41 hhcurveto
          -133 -94 -74 -106 hvcurveto
          hintmask 10111100
          -17 callgsubr
          69 53 26 49 34 vhcurveto
          hintmask 01111100
          -65 vlineto
          -32 146 rmoveto
          hintmask 10111100
          -54 callgsubr
          -99 callgsubr
          endchar
        </CharString>
        <CharString name="aacute">
          -62 callsubr
          194 -20 hstem
          -25 callgsubr
          -12 callgsubr
          -107 callgsubr
          177 604 -103 callsubr
        </CharString>
        <CharString name="abreve">
          -62 callsubr
          32 81 -81 162 4 callsubr
          hintmask 11110110
          -107 callgsubr
          20 523 rmoveto
          hintmask 11101110
          -90 callsubr
          hintmask 11110110
          -51 callsubr
        </CharString>
        <CharString name="acircumflex">
          -62 callsubr
          194 -20 hstem
          -25 callgsubr
          -12 callgsubr
          -107 callgsubr
          -65 447 -104 callsubr
        </CharString>
        <CharString name="acute">
          -378 -1 callgsubr
          264 50 callgsubr
          endchar
        </CharString>
        <CharString name="adblgrave">
          -62 callsubr
          194 -20 hstem
          -25 callgsubr
          -12 callgsubr
          -107 callgsubr
          84 430 -97 callsubr
        </CharString>
        <CharString name="adieresis">
          -62 callsubr
          45 140 hstemhm
          19 179 -111 -18 callsubr
          -121 190 hintmask 11111001
          -107 callgsubr
          hintmask 11110110
          -17 455 -100 callsubr
        </CharString>
        <CharString name="ae">
          52 callgsubr
          23 callgsubr
          202 hintmask 11011100
          203 -10 rmoveto
          67 86 30 72 51 hvcurveto
          -61 48 79 -41 106 hhcurveto
          128 91 -20 callsubr
          -161 46 rlineto
          -33 -12 -42 -20 -41 hhcurveto
          -44 -44 23 56 -4 hvcurveto
          369 hlineto
          3 16 2 22 20 vvcurveto
          -85 callsubr
          -72 -58 -19 -31 -45 vhcurveto
          33 -45 -62 17 -78 hhcurveto
          -90 -77 -22 -45 -70 hvcurveto
          55 -118 rlineto
          37 56 48 20 59 hhcurveto
          64 26 -24 -49 1 hvcurveto
          -16 vlineto
          hintmask 10111100
          -35 callsubr
          hintmask 11011100
          290 193 rmoveto
          51 6 33 31 48 hhcurveto
          48 33 -31 -51 6 hvcurveto
          endchar
        </CharString>
        <CharString name="aeacute">
          52 callgsubr
          194 -20 23 callgsubr
          202 hintmask 11011110
          203 -10 rmoveto
          67 86 30 72 51 hvcurveto
          -61 48 79 -41 106 hhcurveto
          128 91 -20 callsubr
          -161 46 rlineto
          -33 -12 -42 -20 -41 hhcurveto
          -44 -44 23 56 -4 hvcurveto
          369 hlineto
          3 16 2 22 20 vvcurveto
          -85 callsubr
          -72 -58 -19 -31 -45 vhcurveto
          33 -45 -62 17 -78 hhcurveto
          -90 -77 -22 -45 -70 hvcurveto
          55 -118 rlineto
          37 56 48 20 59 hhcurveto
          64 26 -24 -49 1 hvcurveto
          -16 vlineto
          hintmask 10111110
          -35 callsubr
          hintmask 11011110
          290 193 rmoveto
          51 6 33 31 48 hhcurveto
          48 33 -31 -51 6 hvcurveto
          -102 411 -103 callsubr
        </CharString>
        <CharString name="afii61352">
          490 21 -21 333 112 158 107 5 -20 hstemhm
          80 195 242 195 53 133 116 133 hintmask 11101111
          557 -88 callgsubr
          681 -16 rmoveto
          126 65 90 101 hvcurveto
          hintmask 11011111
          33 callsubr
          vhcurveto
          -58 191 rmoveto
          hintmask 11101111
          16 callsubr
        </CharString>
        <CharString name="agrave">
          -62 callsubr
          195 -20 hstem
          -25 callgsubr
          -12 callgsubr
          -107 callgsubr
          -38 431 -86 callgsubr
          endchar
        </CharString>
        <CharString name="ainvertedbreve">
          -62 callsubr
          32 162 -81 81 4 callsubr
          hintmask 11101110
          -107 callgsubr
          34 523 rmoveto
          hintmask 11110110
          -92 callsubr
          hintmask 11101110
          -38 callsubr
        </CharString>
        <CharString name="amacron">
          -62 callsubr
          71 113 hstem
          -25 callgsubr
          -12 callgsubr
          -107 callgsubr
          176 481 -61 callgsubr
        </CharString>
        <CharString name="ampersand">
          87 -10 148 -117 -21 581 138 hstemhm
          35 182 -140 172 71 174 13 153 hintmask 01101110
          755 hmoveto
          -159 167 39 65 24 82 1 102 rlinecurve
          -153 hlineto
          -50 -9 -44 -14 -37 vhcurveto
          -82 87 rlineto
          55 48 37 57 71 vvcurveto
          122 -106 49 -103 -119 -89 -67 -116 -49 16 -36 42 -52 vhcurveto
          hintmask 10110110
          -54 -44 -46 -58 -81 vvcurveto
          -110 85 -116 165 62 64 16 34 57 vhcurveto
          hintmask 01110110
          38 -40 rlineto
          hintmask 10110110
          -201 138 rmoveto
          -65 -23 50 28 20 12 18 22 18 hvcurveto
          113 -121 rlineto
          -9 -20 -20 -4 -19 hhcurveto
          hintmask 10101110
          -56 406 rmoveto
          21 13 16 23 21 14 -13 -22 -21 -11 -12 -27 -18 vhcurveto
          -24 23 -9 9 17 vvcurveto
          endchar
        </CharString>
        <CharString name="aogonek">
          -62 -194 -21 205 136 110 103 69 128 4 callsubr
          -153 117 hintmask 11111010
          541 15 callgsubr
          hintmask 11111100
          -27 2 -9 12 36 vvcurveto
          102 vlineto
          148 -95 76 -167 -90 -77 -22 -45 -70 vhcurveto
          55 -118 rlineto
          37 56 48 20 59 hhcurveto
          64 27 -24 -49 hvcurveto
          -16 vlineto
          32 callsubr
          69 63 32 60 47 hvcurveto
          4 -19 8 -39 24 -24 45 -7 rlinecurve
          hintmask 11111010
          -49 -33 -25 -39 -36 -39 callgsubr
          -281 341 rmoveto
          -36 -26 21 29 34 35 26 46 hvcurveto
          hintmask 11111100
          21 30 -6 -8 22 hvcurveto
          -39 vlineto
          -13 -10 -14 -15 -10 vhcurveto
          -54 callgsubr
          endchar
        </CharString>
        <CharString name="apostrophe">
          -144 -1 callgsubr
          379 30 callgsubr
        </CharString>
        <CharString name="approxequal">
          -196 105 -55 callsubr
          26 -49 callsubr
          hintmask 10001000
          339 424 rmoveto
          -14 -6 -14 -14 -24 hhcurveto
          hintmask 10000100
          13 callsubr
          hintmask 01010000
          45 28 -48 61 hhcurveto
          63 40 50 45 21 hvcurveto
          -87 -144 rmoveto
          -14 -6 -14 -14 -24 hhcurveto
          hintmask 00110000
          13 callsubr
          hintmask 10010000
          45 28 -48 61 hhcurveto
          63 40 50 45 21 hvcurveto
          endchar
        </CharString>
        <CharString name="aring">
          -62 callsubr
          20 54 66 54 65 callgsubr
          hintmask 1111110010000000
          -107 callgsubr
          hintmask 1111101100000000
          -97 517 -89 callgsubr
          endchar
        </CharString>
        <CharString name="aringacute">
          -62 callsubr
          20 54 66 54 -54 242 65 callgsubr
          hintmask 1111101001000000
          -107 callgsubr
          hintmask 1111100110000000
          -97 517 -89 callgsubr
          hintmask 1111011010000000
          157 242 -103 callsubr
        </CharString>
        <CharString name="asciicircum">
          -37 324 -21 407 -20 hstem
          187 303 rmoveto
          126 253 123 -253 rlineto
          153 hlineto
          -197 407 rlineto
          -158 hlineto
          -198 -407 rlineto
          endchar
        </CharString>
        <CharString name="asciitilde">
          -52 216 107 -59 110 hstemhm
          hintmask 10000000
          45 216 rmoveto
          101 hlineto
          hintmask 01000000
          2 2 46 62 vhcurveto
          hintmask 10000000
          64 48 -48 77 hhcurveto
          hintmask 01000000
          130 40 137 21 hvcurveto
          -100 hlineto
          hintmask 10000000
          -4 -9 -47 -60 vhcurveto
          hintmask 01000000
          -63 -45 51 -81 hhcurveto
          hintmask 10000000
          -127 -39 -125 -33 hvcurveto
          endchar
        </CharString>
        <CharString name="asterisk">
          -298 475 -21 267 -20 hstem
          134 454 rmoveto
          48 83 48 -83 69 45 -49 78 72 21 -24 77 -75 -36 7 82 rlineto
          -96 hlineto
          7 -82 -75 36 -24 -77 72 -21 -49 -78 rlineto
          endchar
        </CharString>
        <CharString name="at">
          190 -146 70 70 70 -70 89 125 84 71 105 65 70 hstemhm
          37 74 106 109 179 110 119 73 hintmask 1101111111000000
          425 603 rmoveto
          -205 -183 -127 -245 -231 163 -146 200 60 64 13 27 57 hvcurveto
          -20 68 rlineto
          -19 -50 -39 -19 -69 hhcurveto
          -186 -106 137 168 176 115 128 193 194 121 -129 -179 -43 -7 -118 -63 -47 -2 65 59 hvcurveto
          67 vlineto
          87 -4 126 -193 -66 -61 -15 -34 -51 vhcurveto
          32 -97 rlineto
          25 27 44 16 56 hhcurveto
          84 22 -37 -54 hvcurveto
          9 -18 -34 11 -50 hhcurveto
          -93 -93 -38 -116 -87 53 -57 102 62 62 21 42 45 hvcurveto
          -30 5 24 -43 75 hhcurveto
          154 8 182 55 266 -186 116 -196 hvcurveto
          40 -503 rmoveto
          hintmask 1011111111000000
          -14 -26 -36 -3 -18 hhcurveto
          -41 -18 18 38 46 24 23 55 38 41 -11 -8 20 hvcurveto
          -41 vlineto
          -22 -22 -17 -17 -9 vhcurveto
          endchar
        </CharString>
        <CharString name="atilde">
          -62 callsubr
          36 107 -59 59 -59 110 4 callsubr
          hintmask 11110011
          -107 callgsubr
          84 446 rmoveto
          hintmask 11100111
          -65 callsubr
          hintmask 11110011
          -3 -6 -48 -44 vhcurveto
          hintmask 11100111
          -36 callgsubr
          hintmask 11110011
          -64 callgsubr
          hintmask 11101011
          2 1 46 45 vhcurveto
          hintmask 11110011
          -47 callgsubr
        </CharString>
        <CharString name="b">
          -15 -10 -8 callgsubr
          194 -20 hstemhm
          48 54 callsubr
          195 hintmask 10110110
          383 -10 rmoveto
          140 104 115 156 158 -96 117 -129 -76 -58 -31 -57 -30 hvcurveto
          282 -190 vlineto
          hintmask 01111010
          -730 165 82 vlineto
          hintmask 10110110
          -60 33 58 -32 79 hhcurveto
          -55 160 rmoveto
          -36 -29 18 36 -25 hvcurveto
          94 vlineto
          46 18 40 32 40 hhcurveto
          55 41 -52 -64 -66 -42 -44 -62 hvcurveto
          endchar
        </CharString>
        <CharString name="backslash">
          32 5 callsubr
          25 -12 callsubr
          436 -710 rlineto
          209 hlineto
          -435 710 rlineto
          endchar
        </CharString>
        <CharString name="bar">
          -350 -109 -21 905 -20 hstem
          76 160 vstem
          236 -130 rmoveto
          905 -160 -905 vlineto
          endchar
        </CharString>
        <CharString name="braceleft">
          -288 -10 -21 771 -20 hstemhm
          35 230 -170 170 -170 225 hintmask 11001000
          320 590 rmoveto
          150 -202 vlineto
          -8 -15 -6 -24 hvcurveto
          -209 vlineto
          hintmask 11100000
          -37 -32 -38 -28 vhcurveto
          -130 vlineto
          hintmask 11010000
          28 -6 32 -29 -42 vvcurveto
          -220 vlineto
          -25 15 -5 8 vhcurveto
          hintmask 11001000
          202 150 hlineto
          hintmask 11100000
          -55 165 hlineto
          36 -21 22 -20 18 vhcurveto
          21 19 20 20 37 vvcurveto
          154 vlineto
          endchar
        </CharString>
        <CharString name="braceright">
          -288 -10 -21 771 -20 hstemhm
          54 225 -170 170 -170 230 hintmask 11010000
          109 590 rmoveto
          -154 vlineto
          -37 20 -20 21 -19 vhcurveto
          -20 -18 -21 -22 -36 vvcurveto
          -165 vlineto
          hintmask 11100000
          -55 -150 202 hlineto
          8 15 5 25 hvcurveto
          220 vlineto
          hintmask 11001000
          42 32 29 28 6 vhcurveto
          130 vlineto
          hintmask 11100000
          -28 -32 38 37 hvcurveto
          209 vlineto
          24 -15 6 -8 vhcurveto
          -202 -150 hlineto
          endchar
        </CharString>
        <CharString name="bracketleft">
          74 callsubr
          79 175 -175 245 hintmask 11010000
          324 -40 rmoveto
          150 vlineto
          hintmask 11100000
          -70 480 hlineto
          hintmask 11010000
          70 150 -245 -780 hlineto
          endchar
        </CharString>
        <CharString name="bracketright">
          74 callsubr
          47 245 -175 175 hintmask 11100000
          292 -40 rmoveto
          780 -245 -150 vlineto
          hintmask 11010000
          70 -480 hlineto
          hintmask 11100000
          -70 -150 hlineto
          endchar
        </CharString>
        <CharString name="breve">
          -294 568 -6 callsubr
          hintmask 10000000
          184 649 rmoveto
          hintmask 01000000
          -90 callsubr
          hintmask 10000000
          -51 callsubr
        </CharString>
        <CharString name="brokenbar">
          -346 -109 -21 905 -20 hstem
          78 160 vstem
          78 254 rmoveto
          -384 160 384 vlineto
          -160 521 rmoveto
          -384 160 384 vlineto
          endchar
        </CharString>
        <CharString name="bullet">
          -291 236 234 hstem
          68 234 vstem
          302 353 rmoveto
          64 -52 53 -65 -64 -53 -53 -64 -65 53 -52 64 65 52 52 65 vhcurveto
          endchar
        </CharString>
        <CharString name="c">
          -85 -74 callgsubr
          hstem
          19 195 vstem
          -99 callsubr
          endchar
        </CharString>
        <CharString name="c_t">
          340 -10 160 -160 172 -152 -21 387 160 -10 -20 145 79 hstemhm
          19 195 230 76 143 190 hintmask 0100111110000000
          962 25 callsubr
          143 -103 vlineto
          90 -1 114 -199 -137 -72 -54 -100 -23 4 -26 10 -28 vhcurveto
          hintmask 1001011110000000
          24 -45 -35 13 -63 hhcurveto
          -197 -99 -129 -143 -146 103 -128 186 127 87 -20 callsubr
          70 callgsubr
          -25 -17 -25 -14 -31 hhcurveto
          -52 -41 42 71 71 41 42 52 31 25 -14 -25 17 hvcurveto
          185 56 rlineto
          -17 37 -28 76 60 vvcurveto
          48 18 37 57 vhcurveto
          hintmask 0010111110000000
          54 13 -33 -92 1 hvcurveto
          -3 callsubr
          -241 hlineto
          -43 callsubr
          endchar
        </CharString>
        <CharString name="cacute">
          -85 -74 callgsubr
          194 -20 hstem
          19 195 vstem
          -99 callsubr
          446 467 -103 callsubr
        </CharString>
        <CharString name="caron">
          -260 594 -21 157 -20 hstem
          20 688 rmoveto
          -100 callgsubr
        </CharString>
        <CharString name="caron.alt">
          -378 -1 callgsubr
          264 50 callgsubr
          endchar
        </CharString>
        <CharString name="ccaron">
          -85 -74 callgsubr
          0 37 49 callgsubr
          19 195 hintmask 11011000
          -99 callsubr
          108 425 rmoveto
          hintmask 10111000
          -100 callgsubr
        </CharString>
        <CharString name="ccedilla">
          -85 40 callgsubr
          -55 237 226 160 hstemhm
          19 195 148 84 hintmask 11011100
          181 7 callgsubr
          26 108 9 75 56 39 76 rlinecurve
          70 callgsubr
          hintmask 10111100
          -25 -17 -25 -14 -31 hhcurveto
          -52 -41 42 71 71 41 42 52 31 25 -14 -25 17 hvcurveto
          185 56 rlineto
          84 -43 -87 59 -127 hhcurveto
          -186 -103 -129 -144 -134 89 -121 162 -16 hvcurveto
          -42 -88 -75 callsubr
        </CharString>
        <CharString name="ccircumflex">
          -85 -74 callgsubr
          194 -20 hstem
          19 195 vstem
          -99 callsubr
          204 310 -104 callsubr
        </CharString>
        <CharString name="cdotaccent">
          -85 -74 callgsubr
          44 150 hstem
          19 195 9 170 vstem
          -99 callsubr
          374 317 -93 callgsubr
        </CharString>
        <CharString name="cedilla">
          -300 40 callgsubr
          68 -20 hstem
          201 84 vstem
          20 -79 callsubr
          36 51 -69 19 -64 -132 -75 callsubr
        </CharString>
        <CharString name="cent">
          -44 -99 -21 131 -21 655 -20 hstem
          36 196 44 80 vstem
          356 -120 rmoveto
          110 vlineto
          65 117 47 96 45 hvcurveto
          -185 56 -8 -13 -13 -12 -21 -9 rlinecurve
          215 vlineto
          14 -3 19 -14 9 -16 185 56 rcurveline
          -49 93 -90 45 -88 3 rrcurveto
          111 -80 -111 vlineto
          -160 -29 -80 -112 -135 vvcurveto
          -127 100 -129 140 -11 vhcurveto
          -111 vlineto
          -44 378 rmoveto
          49 17 39 27 15 vhcurveto
          -197 vlineto
          -30 22 -14 35 37 vvcurveto
          endchar
        </CharString>
        <CharString name="circumflex">
          -260 594 -21 157 -20 hstem
          116 573 -104 callsubr
        </CharString>
        <CharString name="colon">
          -358 0 184 151 184 hstem
          75 154 vstem
          229 75 callsubr
          154 -335 rmoveto
          -40 callsubr
          endchar
        </CharString>
        <CharString name="colonmonetary">
          -77 -99 -21 131 -21 546 -20 129 -20 hstemhm
          24 195 -31 84 60 84 hintmask 11110110
          188 -120 rmoveto
          84 112 hlineto
          -1 13 14 -1 14 hhcurveto
          6 7 0 1 6 hvcurveto
          -111 84 125 vlineto
          72 22 52 47 30 59 -185 56 rcurveline
          -25 -17 -25 -14 -31 hhcurveto
          hintmask 11111010
          -52 -41 42 71 71 41 42 52 31 25 -14 -25 17 hvcurveto
          185 56 -30 59 -52 46 -72 23 rlinecurve
          124 -84 -110 vlineto
          1 -6 -7 0 -6 hhcurveto
          hintmask 11110110
          -14 -14 -1 -1 -13 hvcurveto
          111 -84 -132 vlineto
          hintmask 11111010
          -107 -44 -57 -99 -107 vvcurveto
          hintmask 11110110
          -108 57 -99 107 -43 vhcurveto
          endchar
        </CharString>
        <CharString name="comma">
          -405 -136 -21 178 -21 184 -20 hstem
          50 157 vstem
          153 -157 16 callgsubr
        </CharString>
        <CharString name="commaaccent">
          -421 -3 callgsubr
          hstem
          64 157 vstem
          167 -213 rmoveto
          -83 callsubr
        </CharString>
        <CharString name="copyright">
          185 -7 64 54 160 166 160 54 64 hstem
          38 70 52 195 385 70 vstem
          419 -7 rmoveto
          225 166 155 207 206 -166 154 -225 -219 -162 -154 -206 -207 162 -155 219 hvcurveto
          64 vmoveto
          -178 -133 132 166 164 134 132 177 184 137 -132 -164 -176 -141 -122 -180 hvcurveto
          10 54 rmoveto
          122 84 59 84 41 hvcurveto
          70 callgsubr
          -25 -15 -21 -14 -27 hhcurveto
          -40 -33 30 53 53 33 30 40 27 21 -14 -25 15 hvcurveto
          185 56 rlineto
          84 -41 -84 59 -122 hhcurveto
          -174 -95 -114 -129 -129 95 -114 174 hvcurveto
          endchar
        </CharString>
        <CharString name="currency">
          -93 122 -21 46 112 158 112 49 -20 hstem
          80 133 146 133 vstem
          114 578 rmoveto
          -71 -71 65 -66 rlineto
          -19 -30 -9 -36 -37 vvcurveto
          -38 10 -36 19 -31 vhcurveto
          -66 -66 66 -66 72 68 rlineto
          -14 29 35 -8 41 hhcurveto
          40 34 7 14 28 hvcurveto
          71 -67 66 66 -64 64 rlineto
          20 31 11 37 39 vvcurveto
          38 -11 37 -19 31 vhcurveto
          63 63 -71 71 -68 -69 rlineto
          12 -28 -33 8 -39 hhcurveto
          -40 -34 -8 -14 -29 hvcurveto
          30 -169 rmoveto
          49 30 30 43 43 30 -30 -49 -49 -30 -30 -43 -43 -30 30 49 vhcurveto
          endchar
        </CharString>
        <CharString name="d">
          3 -74 callgsubr
          194 -20 hstem
          -14 callgsubr
          vstem
          -87 callgsubr
          endchar
        </CharString>
        <CharString name="d.alt">
          -15 -10 -8 callgsubr
          194 -20 hstemhm
          -14 callgsubr
          hintmask 01111100
          599 hmoveto
          730 -190 -282 31 callsubr
          hintmask 10111100
          -161 103 -113 145 69 43 26 53 30 vhcurveto
          hintmask 01111100
          -69 vlineto
          204 vmoveto
          hintmask 10111100
          9 callsubr
        </CharString>
        <CharString name="dagger">
          -153 -109 -21 316 170 419 -20 hstem
          165 180 vstem
          345 -130 rmoveto
          316 131 170 -131 419 -180 -419 -132 -170 132 -316 vlineto
          endchar
        </CharString>
        <CharString name="daggerdbl">
          -125 -109 -21 183 170 113 170 269 -20 hstem
          179 180 vstem
          359 -130 rmoveto
          183 131 170 -131 113 131 170 -131 269 -180 -269 -132 -170 132 -113 -132 -170 132 -183 vlineto
          endchar
        </CharString>
        <CharString name="dcaron">
          3 -74 callgsubr
          194 -20 hstem
          -14 callgsubr
          vstem
          -87 callgsubr
          518 580 -103 callsubr
        </CharString>
        <CharString name="dcroat">
          3 -74 callgsubr
          43 109 42 -20 hstem
          -14 callgsubr
          vstem
          268 -10 rmoveto
          69 66 28 64 36 -82 callgsubr
          20 26 3 7 34 -29 callsubr
          369 58 109 -58 42 -190 -42 -87 -109 87 -131 vlineto
          55 -30 -61 33 -68 hhcurveto
          -135 -95 -117 -155 -161 103 -113 145 hvcurveto
          -78 callsubr
          endchar
        </CharString>
        <CharString name="ddotbelow">
          3 -27 callsubr
          53 -72 callsubr
          194 -20 hstemhm
          20 196 54 170 -31 190 hintmask 11111010
          -87 callgsubr
          hintmask 11111100
          120 -363 -93 callgsubr
        </CharString>
        <CharString name="degree">
          -362 486 238 hstem
          31 238 vstem
          31 610 rmoveto
          -73 49 -51 70 70 49 48 76 65 -49 49 -70 -70 -49 -49 -65 vhcurveto
          96 17 rmoveto
          6 6 8 3 9 hhcurveto
          8 9 -2 -7 5 hvcurveto
          6 -5 3 -8 -9 vvcurveto
          -7 -3 -10 -6 -5 vhcurveto
          -6 -5 -9 -4 -8 hhcurveto
          -9 -8 4 6 -6 hvcurveto
          -5 5 -4 9 8 vvcurveto
          9 4 8 5 5 vhcurveto
          endchar
        </CharString>
        <CharString name="dieresis">
          -96 580 140 hstem
          90 61 callsubr
          246 580 -100 callsubr
        </CharString>
        <CharString name="divide">
          -177 27 160 48 150 50 160 hstem
          164 159 vstem
          323 435 rmoveto
          160 -159 -160 vlineto
          159 -408 rmoveto
          160 -159 -160 vlineto
          281 208 rmoveto
          150 -404 -150 vlineto
          endchar
        </CharString>
        <CharString name="dollar">
          -13 -108 -21 944 -20 hstemhm
          63 202 26 80 -66 52 44 210 hintmask 11110100
          594 639 rmoveto
          -55 27 -81 37 -87 10 rrcurveto
          102 -80 -101 vlineto
          -125 -14 -103 -81 -143 vvcurveto
          -104 55 -53 125 -42 vhcurveto
          hintmask 11101100
          22 -8 20 -6 20 -5 rrcurveto
          -88 vlineto
          -96 14 -93 61 0 vvcurveto
          -84 -171 rlineto
          hintmask 11110100
          71 -42 97 -30 91 -8 rrcurveto
          -123 80 121 vlineto
          122 8 118 59 158 vvcurveto
          133 -83 46 -131 41 vhcurveto
          hintmask 11101100
          -15 4 -13 5 -12 3 rrcurveto
          90 vlineto
          75 -13 78 -48 0 vvcurveto
          -109 -280 rmoveto
          -17 -12 -11 -32 -3 vhcurveto
          74 vlineto
          27 -11 17 -13 -19 vvcurveto
          -136 310 rmoveto
          20 15 11 25 3 vhcurveto
          -76 vlineto
          -26 11 -14 11 20 vvcurveto
          endchar
        </CharString>
        <CharString name="dotaccent">
          -392 580 150 hstem
          50 170 vstem
          220 580 -93 callgsubr
        </CharString>
        <CharString name="dotbelow">
          -392 -27 callsubr
          hstem
          50 170 vstem
          220 -213 -93 callgsubr
        </CharString>
        <CharString name="dotlessi">
          -7 callgsubr
          48 -12 callgsubr
          -72 callgsubr
          endchar
        </CharString>
        <CharString name="dotlessj">
          67 callsubr
          hstem
          48 -12 callgsubr
          32 -209 -94 callgsubr
          endchar
        </CharString>
        <CharString name="e">
          -75 callgsubr
          hstem
          19 202 vstem
          -107 callsubr
          endchar
        </CharString>
        <CharString name="eacute">
          -75 callgsubr
          194 -20 hstem
          19 202 vstem
          -107 callsubr
          73 411 -103 callsubr
        </CharString>
        <CharString name="ebreve">
          -75 callgsubr
          32 -6 callsubr
          19 202 hintmask 11110100
          -107 callsubr
          -84 330 rmoveto
          hintmask 11101100
          -90 callsubr
          hintmask 11110100
          -51 callsubr
        </CharString>
        <CharString name="ecaron">
          -53 -10 136 0 79 114 82 0 135 0 37 49 callgsubr
          19 202 hintmask 01010110
          307 -10 rmoveto
          128 91 -20 callsubr
          -161 46 rlineto
          -33 -12 -42 -20 -41 hhcurveto
          -44 -44 23 56 -4 hvcurveto
          369 hlineto
          3 16 2 22 20 vvcurveto
          -85 callsubr
          -71 callsubr
          -152 vhcurveto
          hintmask 10101110
          -141 103 -125 185 vhcurveto
          -90 329 rmoveto
          51 6 33 31 48 hhcurveto
          48 33 -31 -51 6 hvcurveto
          -265 369 rmoveto
          -100 callgsubr
        </CharString>
        <CharString name="ecircumflex">
          -75 callgsubr
          194 -20 hstem
          19 202 vstem
          -107 callsubr
          -169 254 -104 callsubr
        </CharString>
        <CharString name="edblgrave">
          -75 callgsubr
          194 -20 hstem
          19 202 vstem
          -107 callsubr
          -7 237 -97 callsubr
        </CharString>
        <CharString name="edieresis">
          -75 callgsubr
          45 140 hstemhm
          19 202 -107 -18 callsubr
          hintmask 11111010
          -107 callsubr
          hintmask 11110110
          -121 262 -100 callsubr
        </CharString>
        <CharString name="edotaccent">
          -75 callgsubr
          44 150 hstem
          19 202 1 170 vstem
          -107 callsubr
          1 261 -93 callgsubr
        </CharString>
        <CharString name="edotbelow">
          -53 -27 callsubr
          53 136 79 114 82 135 hstemhm
          19 202 -8 170 hintmask 11111000
          -107 callsubr
          hintmask 11110100
          -8 -532 -93 callgsubr
        </CharString>
        <CharString name="egrave">
          -75 callgsubr
          195 -20 hstem
          19 202 vstem
          -107 callsubr
          -142 238 -86 callgsubr
          endchar
        </CharString>
        <CharString name="eight">
          -80 callgsubr
        </CharString>
        <CharString name="eight.denominator">
          -223 -6 -56 callsubr
          133 -97 callgsubr
        </CharString>
        <CharString name="eight.lnum">
          -80 callgsubr
        </CharString>
        <CharString name="eight.numerator">
          -223 284 -56 callsubr
          423 -97 callgsubr
        </CharString>
        <CharString name="eightinferior">
          -223 -96 -56 callsubr
          43 -97 callgsubr
        </CharString>
        <CharString name="eightsuperior">
          -223 374 -56 callsubr
          513 -97 callgsubr
        </CharString>
        <CharString name="einvertedbreve">
          -75 callgsubr
          32 -18 callgsubr
          19 202 hintmask 11101100
          -107 callsubr
          -80 330 rmoveto
          hintmask 11110100
          -92 callsubr
          hintmask 11101100
          -38 callsubr
        </CharString>
        <CharString name="ellipsis">
          60 0 184 hstem
          50 154 80 154 80 154 cntrmask 01110000
          204 hmoveto
          -40 callsubr
          388 hmoveto
          -40 callsubr
          388 hmoveto
          -40 callsubr
          endchar
        </CharString>
        <CharString name="emacron">
          -75 callgsubr
          71 113 hstem
          19 202 vstem
          -107 callsubr
          72 288 -61 callgsubr
        </CharString>
        <CharString name="emdash">
          286 191 170 hstem
          898 191 rmoveto
          170 -848 -170 vlineto
          endchar
        </CharString>
        <CharString name="emspace">
          278 endchar
        </CharString>
        <CharString name="endash">
          14 callgsubr
        </CharString>
        <CharString name="eng">
          -42 60 callgsubr
          370 166 -10 -20 21 callgsubr
          149 189 hintmask 11101010
          370 -209 rmoveto
          119 87 90 131 hvcurveto
          334 vlineto
          72 -15 118 -144 -91 -70 -31 -57 -37 vhcurveto
          hintmask 11011010
          -22 callsubr
          hintmask 11100110
          190 295 hlineto
          44 17 42 31 32 hhcurveto
          31 27 -22 -52 hvcurveto
          -299 vlineto
          -27 -16 -16 -25 -18 -18 8 12 -11 vhcurveto
          -78 -129 rlineto
          -35 41 53 -19 55 hhcurveto
          endchar
        </CharString>
        <CharString name="enspace">
          -41 endchar
        </CharString>
        <CharString name="eogonek">
          -53 -192 -21 204 135 0 79 114 82 0 135 hstemhm
          19 202 -9 117 hintmask 10110010
          364 -213 -49 callgsubr
          23 25 28 46 26 hvcurveto
          79 21 58 49 32 62 -161 46 rcurveline
          -33 -12 -42 -20 -41 hhcurveto
          hintmask 10101100
          -44 -44 23 56 -4 hvcurveto
          369 hlineto
          3 16 2 22 20 vvcurveto
          -85 callsubr
          -71 callsubr
          -152 vhcurveto
          hintmask 11010010
          -134 93 -120 169 -11 vhcurveto
          -46 -32 -23 -37 -35 -39 callgsubr
          -147 532 rmoveto
          51 6 33 31 48 hhcurveto
          48 33 -31 -51 6 hvcurveto
          endchar
        </CharString>
        <CharString name="equal">
          -229 101 120 110 120 hstem
          378 101 rmoveto
          120 -323 -120 vlineto
          323 230 rmoveto
          120 -323 -120 vlineto
          endchar
        </CharString>
        <CharString name="estimated">
          -43 -10 57 188 60 184 57 hstem
          27 147 284 146 vstem
          315 47 rmoveto
          -54 -53 24 33 -34 hvcurveto
          131 430 vlineto
          169 -116 132 -173 -172 -116 -125 -151 -145 114 -125 174 110 79 36 47 51 vhcurveto
          -36 43 rlineto
          -37 -40 -67 -32 -97 hhcurveto
          432 vmoveto
          55 53 -23 -48 35 hvcurveto
          -113 -284 114 vlineto
          47 34 53 23 54 hhcurveto
          endchar
        </CharString>
        <CharString name="eth">
          -41 -10 160 170 151 259 -20 hstem
          22 -13 callgsubr
          195 vstem
          499 712 rmoveto
          -72 -38 -28 24 -30 18 -31 14 rlinecurve
          -230 hlineto
          72 -36 58 -38 45 -41 -67 -34 rcurveline
          52 -71 76 38 28 -38 19 -41 12 -44 rlinecurve
          29 -38 -52 17 -53 hhcurveto
          -134 -104 -104 -133 -143 119 -101 169 179 109 113 188 116 -42 115 -67 87 hvcurveto
          62 32 rlineto
          -334 -406 rmoveto
          51 37 34 56 56 37 -34 -51 -51 -37 -34 -56 -56 -37 34 51 vhcurveto
          endchar
        </CharString>
        <CharString name="etilde">
          -75 callgsubr
          36 -49 callsubr
          19 202 hintmask 11110010
          -107 callsubr
          -20 253 -39 callsubr
        </CharString>
        <CharString name="exclam">
          -300 0 184 533 -20 hstem
          86 -12 callgsubr
          276 300 rmoveto
          417 -190 -417 vlineto
          190 -300 rmoveto
          184 -190 -184 vlineto
          endchar
        </CharString>
        <CharString name="exclamdown">
          -302 14 -21 533 184 hstem
          85 -12 callgsubr
          85 410 rmoveto
          -417 190 417 vlineto
          -190 300 rmoveto
          -184 190 184 vlineto
          endchar
        </CharString>
        <CharString name="f">
          -260 21 34 callsubr
          hstem
          85 -12 callgsubr
          275 hmoveto
          322 -24 callgsubr
          -322 vlineto
          endchar
        </CharString>
        <CharString name="f_f">
          29 21 -21 322 8 callsubr
          99 190 hintmask 11011100
          611 580 rmoveto
          19 29 -6 -8 22 hvcurveto
          32 144 rlineto
          20 -53 -49 10 -41 hhcurveto
          -64 -49 -24 -40 -34 hvcurveto
          hintmask 11101100
          18 callsubr
          22 callsubr
          99 22 callsubr
          115 143 -115 64 vlineto
          hintmask 11011100
          34 15 17 32 vhcurveto
          -237 -115 rmoveto
          -99 30 hlineto
          hintmask 11101100
          77 callgsubr
          endchar
        </CharString>
        <CharString name="f_f_i">
          249 21 -21 322 8 callsubr
          99 190 109 191 hintmask 11011110
          85 hmoveto
          190 322 99 22 callsubr
          109 -322 191 465 -300 64 hlineto
          34 21 17 46 40 57 -26 -38 43 vhcurveto
          72 144 rlineto
          55 -89 -76 25 -68 hhcurveto
          -80 -65 -24 -40 -42 hvcurveto
          hintmask 11101110
          18 callsubr
          vlineto
          190 143 rmoveto
          30 vlineto
          77 callgsubr
          -72 vlineto
          endchar
        </CharString>
        <CharString name="f_f_l">
          344 0 160 -148 -21 331 8 callsubr
          98 190 132 190 hintmask 01110111
          855 -9 rmoveto
          72 78 30 3 3 hvcurveto
          -23 152 rlineto
          hintmask 10101111
          15 callsubr
          -86 -71 -20 -44 -44 vhcurveto
          hintmask 10110111
          20 -53 -48 10 -45 hhcurveto
          -116 -77 -86 -132 hvcurveto
          -23 -3 callsubr
          22 callsubr
          98 22 callsubr
          69 143 -69 29 vlineto
          hintmask 01101111
          46 16 40 48 60 8 -39 -58 vhcurveto
          -366 vlineto
          -68 60 -58 100 vhcurveto
          -580 474 rmoveto
          30 vlineto
          hintmask 10110111
          34 15 17 31 14 20 -3 -5 18 vhcurveto
          -73 vlineto
          endchar
        </CharString>
        <CharString name="f_i">
          -41 21 34 callsubr
          hstem
          85 190 109 -12 callgsubr
          85 hmoveto
          190 322 109 -322 190 465 -299 64 hlineto
          34 23 17 39 46 53 -24 -40 46 vhcurveto
          72 144 rlineto
          54 -84 -69 26 -77 hhcurveto
          -140 -99 -86 -132 hvcurveto
          -57 -3 callsubr
          vlineto
          endchar
        </CharString>
        <CharString name="f_l">
          56 -9 169 -139 34 callsubr
          hstemhm
          85 190 132 190 hintmask 10111100
          697 176 rmoveto
          15 callsubr
          -149 -103 -61 -139 vhcurveto
          -75 -3 callsubr
          vlineto
          hintmask 01111100
          22 callsubr
          69 143 -69 29 vlineto
          51 16 35 54 54 8 -35 -72 vhcurveto
          -356 vlineto
          hintmask 10111100
          -68 60 -58 100 72 78 30 3 3 vhcurveto
          endchar
        </CharString>
        <CharString name="five">
          -100 -149 76 callgsubr
          341 195 vstem
          300 326 -57 callsubr
        </CharString>
        <CharString name="five.denominator">
          -250 -6 21 callsubr
          278 111 vstem
          216 289 -91 callsubr
        </CharString>
        <CharString name="five.lnum">
          -80 -9 76 callgsubr
          351 195 vstem
          310 466 -57 callsubr
        </CharString>
        <CharString name="five.numerator">
          -251 284 21 callsubr
          277 111 vstem
          215 579 -91 callsubr
        </CharString>
        <CharString name="fiveeighths">
          408 22 callgsubr
          9 105 -54 105 59 80 43 109 hstemhm
          290 111 250 -58 callsubr
          hintmask 0111011110010000
          306 -87 callsubr
          813 68 rmoveto
          49 -33 30 -46 23 vhcurveto
          hintmask 1010111101100000
          -78 callgsubr
          hintmask 1011011110010000
          -95 callsubr
          hintmask 1010111101100000
          -81 callsubr
          -548 274 rmoveto
          -32 -19 -6 -2 -9 hvcurveto
          17 51 rlineto
          180 109 -258 hlineto
          -16 -93 -28 -90 -17 -92 rrcurveto
          94 hlineto
          25 13 38 18 30 hhcurveto
          29 40 -16 -41 hvcurveto
          hintmask 1011011110100000
          -40 -36 -13 -44 -48 -40 15 25 -28 vhcurveto
          -62 -76 rlineto
          -43 33 65 -26 73 hhcurveto
          116 82 63 89 84 -74 59 -99 hvcurveto
          endchar
        </CharString>
        <CharString name="fiveinferior">
          -251 -96 21 callsubr
          277 111 vstem
          215 199 -91 callsubr
        </CharString>
        <CharString name="fivesuperior">
          -250 374 21 callsubr
          278 111 vstem
          216 669 -91 callsubr
        </CharString>
        <CharString name="florin">
          -97 42 callsubr
          368 143 115 160 hstem
          193 -12 callgsubr
          177 -209 rmoveto
          118 88 86 125 hvcurveto
          320 -24 callgsubr
          -325 vlineto
          -27 -15 -16 -25 -18 -18 8 12 -11 vhcurveto
          -78 -129 rlineto
          -35 41 53 -19 55 hhcurveto
          endchar
        </CharString>
        <CharString name="four">
          -76 -106 -21 124 170 404 -20 hstemhm
          272 190 -168 168 hintmask 11110000
          462 -127 rmoveto
          124 18 callgsubr
          -124 vlineto
          hintmask 11101000
          22 414 rmoveto
          -120 -92 vlineto
          endchar
        </CharString>
        <CharString name="four.denominator">
          -231 1 -26 callsubr
          1 -73 callgsubr
        </CharString>
        <CharString name="four.lnum">
          -65 22 -21 136 170 404 -20 hstemhm
          282 190 -168 168 hintmask 11110000
          472 1 rmoveto
          136 18 callgsubr
          -136 vlineto
          hintmask 11101000
          22 426 rmoveto
          -120 -92 vlineto
          endchar
        </CharString>
        <CharString name="four.numerator">
          -231 291 -26 callsubr
          291 -73 callgsubr
        </CharString>
        <CharString name="fourinferior">
          -231 -89 -26 callsubr
          -89 -73 callgsubr
        </CharString>
        <CharString name="foursuperior">
          -231 381 -26 callsubr
          381 -73 callgsubr
        </CharString>
        <CharString name="fraction">
          -422 11 -21 731 -20 hstem
          -106 -87 callsubr
          endchar
        </CharString>
        <CharString name="franc">
          -56 21 -21 76 120 68 158 118 170 hstem
          102 195 vstem
          297 hmoveto
          76 105 120 -105 68 43 callsubr
          -514 -67 -120 67 -76 vlineto
          endchar
        </CharString>
        <CharString name="g">
          -50 callgsubr
          1 callsubr
          165 hintmask 11011100
          -91 callgsubr
          hintmask 11011010
          -165 -78 hlineto
          hintmask 11101100
          -94 callsubr
          endchar
        </CharString>
        <CharString name="gacute">
          -50 callgsubr
          224 51 callgsubr
          hintmask 11011110
          -91 callgsubr
          hintmask 11011101
          -165 -78 hlineto
          hintmask 11101110
          -94 callsubr
          160 580 -103 callsubr
        </CharString>
        <CharString name="gbreve">
          -50 callgsubr
          62 81 -81 162 1 callsubr
          78 hintmask 1101101100000000
          -91 callgsubr
          hintmask 1101101010000000
          -165 -78 hlineto
          hintmask 1110101100000000
          -94 callsubr
          35 499 rmoveto
          hintmask 1110011010000000
          -90 callsubr
          hintmask 1110101100000000
          -51 callsubr
        </CharString>
        <CharString name="gcircumflex">
          -50 callgsubr
          224 51 callgsubr
          hintmask 11011110
          -91 callgsubr
          hintmask 11011101
          -165 -78 hlineto
          hintmask 11101110
          -94 callsubr
          -50 423 -104 callsubr
        </CharString>
        <CharString name="gcommaaccent">
          -50 callgsubr
          77 167 hstemhm
          21 194 45 157 -8 190 -165 165 hintmask 1101110100000000
          -91 callgsubr
          hintmask 1101111010000000
          -165 -78 hlineto
          hintmask 1110110100000000
          -94 callsubr
          -4 600 rmoveto
          hintmask 1110111010000000
          -54 -61 rlineto
          -106 157 106 -57 vlineto
          36 61 rlineto
          endchar
        </CharString>
        <CharString name="gdotaccent">
          -50 callgsubr
          74 150 hstemhm
          21 194 53 170 -29 190 -165 165 hintmask 1101110100000000
          -91 callgsubr
          hintmask 1101110010000000
          -165 -78 hlineto
          hintmask 1110110100000000
          -94 callsubr
          hintmask 1110111000000000
          120 430 -93 callgsubr
        </CharString>
        <CharString name="germandbls">
          -99 0 168 -153 -21 720 -20 hstemhm
          48 180 26 238 -180 180 -148 200 hintmask 01111000
          254 -6 rmoveto
          hintmask 10110010
          135 155 46 173 96 -48 65 -75 29 hvcurveto
          hintmask 10110100
          37 19 34 57 67 vvcurveto
          107 -86 61 -118 -135 -105 -79 -106 vhcurveto
          -529 180 494 vlineto
          13 0 47 41 2 41 0 -42 -22 -11 -17 -28 vhcurveto
          -21 -170 23 hlineto
          hintmask 10110010
          23 46 -18 -48 hvcurveto
          hintmask 10111000
          -45 -41 -24 -49 vhcurveto
          endchar
        </CharString>
        <CharString name="grave">
          -378 -1 callgsubr
          144 556 -86 callgsubr
          endchar
        </CharString>
        <CharString name="greater">
          -141 -19 -21 596 -20 hstem
          490 298 rmoveto
          -424 258 rlineto
          -202 vlineto
          148 -95 -148 -87 rlineto
          -212 vlineto
          424 250 rlineto
          endchar
        </CharString>
        <CharString name="greaterequal">
          -167 1 150 509 -20 hstem
          454 35 callgsubr
          376 491 rmoveto
          -375 168 rlineto
          -182 vlineto
          198 -55 -198 -47 rlineto
          -182 vlineto
          375 150 rlineto
          endchar
        </CharString>
        <CharString name="guillemotleft">
          51 51 -21 466 -20 hstem
          30 210 -32 callsubr
          351 -88 -32 callsubr
          endchar
        </CharString>
        <CharString name="guillemotright">
          51 51 -21 466 -20 hstem
          683 298 -32 callgsubr
          -351 88 -32 callgsubr
          endchar
        </CharString>
        <CharString name="guilsinglleft">
          -300 51 -21 466 -20 hstem
          30 210 -32 callsubr
          endchar
        </CharString>
        <CharString name="guilsinglright">
          -300 51 -21 466 -20 hstem
          332 298 -32 callgsubr
          endchar
        </CharString>
        <CharString name="h">
          -28 callsubr
          194 -20 hstem
          48 -57 callgsubr
          vstem
          -66 callgsubr
          endchar
        </CharString>
        <CharString name="hbar">
          -28 callsubr
          43 109 42 -20 hstem
          48 -57 callgsubr
          vstem
          577 346 11 callgsubr
          -31 -57 -37 vhcurveto
          131 115 109 -115 42 -190 -42 -30 -109 30 -579 190 295 vlineto
          46 18 45 29 25 hhcurveto
          35 26 4 callgsubr
          endchar
        </CharString>
        <CharString name="hcircumflex">
          -28 callsubr
          193 -20 21 -20 hstemhm
          48 -57 callgsubr
          hintmask 11011100
          -66 callgsubr
          -232 577 rmoveto
          69 61 70 -61 78 40 rlineto
          hintmask 11101100
          -92 112 rlineto
          -111 hlineto
          -93 -112 rlineto
          endchar
        </CharString>
        <CharString name="hdotbelow">
          -41 -27 callsubr
          84 -5 callgsubr
          194 -20 hstemhm
          48 190 -13 170 -8 190 hintmask 11111010
          -66 callgsubr
          hintmask 11110100
          -182 -213 -93 callgsubr
        </CharString>
        <CharString name="hungarumlaut">
          -263 -1 callgsubr
          204 730 -70 callsubr
        </CharString>
        <CharString name="hyphen">
          -249 191 170 hstem
          363 191 rmoveto
          170 -313 -170 vlineto
          endchar
        </CharString>
        <CharString name="i">
          -52 callgsubr
          64 160 hstem
          48 -12 callgsubr
          -72 callgsubr
          190 570 rmoveto
          160 -190 -160 vlineto
          endchar
        </CharString>
        <CharString name="iacute">
          -52 callgsubr
          224 -20 hstem
          48 -12 callgsubr
          -72 callgsubr
          252 50 callgsubr
          endchar
        </CharString>
        <CharString name="ibreve">
          21 -21 526 66 callsubr
          48 190 hintmask 11101000
          -72 callgsubr
          95 649 rmoveto
          hintmask 11011000
          -90 callsubr
          hintmask 11101000
          -51 callsubr
        </CharString>
        <CharString name="icircumflex">
          -52 callgsubr
          224 -20 hstem
          48 -12 callgsubr
          -72 callgsubr
          10 573 -104 callsubr
        </CharString>
        <CharString name="idblgrave">
          -52 callgsubr
          224 -20 hstem
          48 -12 callgsubr
          -72 callgsubr
          176 556 -97 callsubr
        </CharString>
        <CharString name="idieresis">
          -52 callgsubr
          75 140 hstemhm
          -50 71 callgsubr
          -72 callgsubr
          hintmask 11110100
          58 581 -100 callsubr
        </CharString>
        <CharString name="idotbelow">
          -27 callsubr
          84 -29 callgsubr
          64 160 hstemhm
          48 178 -178 190 hintmask 11110100
          -72 callgsubr
          190 570 rmoveto
          160 -190 -160 vlineto
          hintmask 11111000
          178 -783 -93 callgsubr
        </CharString>
        <CharString name="igrave">
          -52 callgsubr
          225 -20 hstem
          48 -12 callgsubr
          -72 callgsubr
          37 557 -86 callgsubr
          endchar
        </CharString>
        <CharString name="iinvertedbreve">
          -52 callgsubr
          62 -18 callgsubr
          48 190 hintmask 11011000
          -72 callgsubr
          95 649 rmoveto
          hintmask 11101000
          -92 callsubr
          hintmask 11011000
          -38 callsubr
        </CharString>
        <CharString name="ij">
          -86 60 callgsubr
          526 -20 64 160 hstem
          48 190 100 -12 callgsubr
          -72 callgsubr
          190 570 rmoveto
          160 -190 -160 vlineto
          274 -779 -35 callgsubr
        </CharString>
        <CharString name="imacron">
          -52 callgsubr
          101 113 hstem
          48 -12 callgsubr
          -72 callgsubr
          251 607 -61 callgsubr
        </CharString>
        <CharString name="infinity">
          90 146 140 130 141 hstem
          36 140 399 140 vstem
          216 557 rmoveto
          -102 -78 -91 -114 -112 89 -94 91 88 43 34 39 31 hvcurveto
          -39 32 43 -34 82 hhcurveto
          102 78 91 114 112 -70 94 -109 -86 -41 -38 -44 -33 hvcurveto
          44 -33 -42 38 -85 hhcurveto
          20 -271 rmoveto
          -28 -32 19 47 46 32 18 28 43 19 -30 -36 20 hvcurveto
          -35 -20 -20 -29 -42 hhcurveto
          280 hmoveto
          -41 -21 27 33 -18 hvcurveto
          38 17 19 32 44 hhcurveto
          29 30 -18 -46 -47 -30 -19 -29 hvcurveto
          endchar
        </CharString>
        <CharString name="integral">
          -254 -167 159 669 159 hstem
          124 52 rmoveto
          -39 2 -16 -21 -32 hhcurveto
          -13 -16 6 9 -14 hvcurveto
          -26 -140 rlineto
          -21 46 62 -13 50 hhcurveto
          101 54 54 98 -5 hvcurveto
          -33 616 rlineto
          39 -2 16 21 32 hhcurveto
          13 16 -6 -9 14 hvcurveto
          26 140 rlineto
          21 -46 -62 13 -50 hhcurveto
          -101 -54 -54 -98 5 hvcurveto
          endchar
        </CharString>
        <CharString name="iogonek">
          -194 -21 236 -13 callsubr
          44 0 160 hstemhm
          48 118 -118 190 hintmask 11101000
          201 62 callsubr
          hintmask 11100100
          23 26 28 46 27 vhcurveto
          526 -31 callgsubr
          87 vlineto
          59 callgsubr
          37 785 rmoveto
          hintmask 11010100
          160 -190 -160 vlineto
          endchar
        </CharString>
        <CharString name="itilde">
          -52 callgsubr
          66 -49 callsubr
          48 190 hintmask 11100100
          -72 callgsubr
          159 572 -74 callsubr
        </CharString>
        <CharString name="j">
          -372 67 callsubr
          64 160 hstem
          52 -12 callgsubr
          36 -209 -35 callgsubr
        </CharString>
        <CharString name="j.alt">
          -192 -21 783 160 hstem
          48 -12 callgsubr
          48 -213 rmoveto
          190 730 -190 hlineto
          53 vmoveto
          189 160 -189 hlineto
          endchar
        </CharString>
        <CharString name="jcircumflex">
          67 callsubr
          224 -20 hstem
          48 -12 callgsubr
          32 -209 -94 callgsubr
          26 782 -104 callsubr
        </CharString>
        <CharString name="k">
          -80 -52 callgsubr
          224 -20 hstem
          48 -12 callgsubr
          -24 callsubr
          endchar
        </CharString>
        <CharString name="kcommaaccent">
          -80 -3 callgsubr
          67 -29 callgsubr
          224 -20 hstemhm
          48 190 -20 157 hintmask 11111000
          -24 callsubr
          -74 -213 rmoveto
          hintmask 11110100
          -83 callsubr
        </CharString>
        <CharString name="kgreenlandic">
          -80 -7 callgsubr
          48 -12 callgsubr
          596 hmoveto
          -199 296 181 230 rlineto
          -200 hlineto
          -140 -195 rlineto
          195 -31 callgsubr
          57 callsubr
          endchar
        </CharString>
        <CharString name="l">
          -307 -10 159 581 -20 hstem
          44 -12 callgsubr
          44 142 rmoveto
          -85 callgsubr
          521 -190 vlineto
          endchar
        </CharString>
        <CharString name="l.alt">
          21 -21 730 -20 hstem
          48 -12 callgsubr
          48 hmoveto
          190 730 -190 hlineto
          endchar
        </CharString>
        <CharString name="lacute">
          -307 -10 159 581 -20 222 -20 hstem
          44 -12 callgsubr
          44 142 rmoveto
          -85 callgsubr
          521 -190 vlineto
          252 202 -103 callsubr
        </CharString>
        <CharString name="lcaron">
          -307 -10 159 580 -20 21 -20 hstemhm
          44 190 hintmask 10110000
          44 142 rmoveto
          -85 callgsubr
          521 -190 vlineto
          hintmask 11010000
          444 -1 -103 callsubr
        </CharString>
        <CharString name="lcommaaccent">
          -307 -3 callgsubr
          36 159 581 -20 hstemhm
          44 190 -114 157 hintmask 11110000
          44 142 rmoveto
          -85 callgsubr
          521 -190 vlineto
          179 -943 rmoveto
          hintmask 11101000
          -83 callsubr
        </CharString>
        <CharString name="ldot">
          -195 -10 159 150 184 247 -20 hstem
          44 190 61 154 vstem
          44 142 rmoveto
          -85 callgsubr
          521 -190 vlineto
          405 -431 rmoveto
          -40 callsubr
          endchar
        </CharString>
        <CharString name="less">
          -141 -19 -21 596 -20 hstem
          31 210 rmoveto
          424 -250 rlineto
          212 vlineto
          -148 87 148 95 rlineto
          202 vlineto
          -424 -258 rlineto
          endchar
        </CharString>
        <CharString name="lessequal">
          -167 1 150 509 -20 hstem
          421 35 callgsubr
          4 343 rmoveto
          375 -150 rlineto
          182 vlineto
          -198 47 198 55 rlineto
          182 vlineto
          -375 -168 rlineto
          endchar
        </CharString>
        <CharString name="lira">
          -89 64 callsubr
          31 120 30 120 100 153 hstemhm
          86 168 hintmask 01011110
          36 342 rmoveto
          108 hlineto
          3 -10 2 -10 2 -10 rrcurveto
          -115 -120 88 hlineto
          -16 -28 -22 -24 -25 -15 73 callsubr
          hintmask 10011110
          10 callgsubr
          hintmask 00111110
          -43 -45 15 -42 hhcurveto
          hintmask 10011110
          -22 -24 -4 -11 -32 hvcurveto
          15 15 12 15 10 16 rrcurveto
          137 120 -106 hlineto
          10 -2 10 -2 10 vhcurveto
          110 120 -155 hlineto
          -7 17 -4 16 15 0 callgsubr
          -24 5 -23 7 -22 hvcurveto
          -62 hlineto
          endchar
        </CharString>
        <CharString name="logicalnot">
          -25 110 -21 172 170 hstem
          418 160 vstem
          49 431 rmoveto
          -170 369 -172 160 342 vlineto
          endchar
        </CharString>
        <CharString name="lozenge">
          -48 20 -21 730 -20 hstem
          200 729 rmoveto
          -186 -364 186 -366 rlineto
          214 hlineto
          186 366 -186 364 rlineto
          -99 -605 rmoveto
          -124 250 115 227 125 -248 rlineto
          endchar
        </CharString>
        <CharString name="lslash">
          -275 -10 159 581 -20 hstem
          72 -12 callgsubr
          72 142 rmoveto
          -85 callgsubr
          155 vlineto
          126 62 -43 101 -83 -41 rlineto
          244 -190 -337 vlineto
          -83 -40 43 -101 40 19 rlineto
          endchar
        </CharString>
        <CharString name="m">
          278 -7 callsubr
          -10 -20 21 callgsubr
          139 190 139 190 hintmask 11010110
          896 346 rmoveto
          72 -17 118 -138 -82 -68 -34 -57 -37 vhcurveto
          47 -15 -41 44 -86 hhcurveto
          -89 -67 -31 -57 -37 hvcurveto
          hintmask 10110110
          -22 callsubr
          hintmask 11001110
          190 295 hlineto
          44 16 40 31 30 hhcurveto
          29 24 -1 callsubr
          295 vlineto
          44 16 40 31 30 hhcurveto
          29 24 4 callgsubr
          endchar
        </CharString>
        <CharString name="macron">
          -224 607 113 hstem
          374 607 -61 callgsubr
        </CharString>
        <CharString name="minus">
          -148 280 150 hstem
          459 280 rmoveto
          150 -404 -150 vlineto
          endchar
        </CharString>
        <CharString name="mu">
          46 45 callsubr
          75 178 161 190 hintmask 11011100
          75 -59 callsubr
        </CharString>
        <CharString name="multiply">
          -170 94 -21 403 -20 hstem
          363 278 rmoveto
          80 80 -117 118 -80 -80 -80 80 -119 -118 80 -81 -86 -86 117 -118 87 87 87 -87 119 118 rlineto
          endchar
        </CharString>
        <CharString name="n">
          -28 callsubr
          -10 8 callgsubr
          hintmask 11010100
          -77 callsubr
          hintmask 10110100
          -22 callsubr
          hintmask 11001100
          -80 callsubr
          endchar
        </CharString>
        <CharString name="nacute">
          -28 callsubr
          -10 -20 224 8 callgsubr
          hintmask 11011010
          -77 callsubr
          hintmask 10111010
          -22 callsubr
          hintmask 11010110
          -80 callsubr
          -87 50 callgsubr
          endchar
        </CharString>
        <CharString name="napostrophe">
          -28 callsubr
          -10 -20 224 8 callgsubr
          hintmask 11011010
          -77 callsubr
          hintmask 10111010
          -22 callsubr
          hintmask 11010110
          -80 callsubr
          -399 30 callgsubr
        </CharString>
        <CharString name="ncaron">
          -28 callsubr
          -10 -20 30 37 157 8 callgsubr
          hintmask 11001101
          -77 callsubr
          hintmask 10111101
          -22 callsubr
          hintmask 11001011
          -80 callsubr
          -425 688 rmoveto
          hintmask 10111101
          -100 callgsubr
        </CharString>
        <CharString name="ncommaaccent">
          -41 -3 callgsubr
          67 -5 callgsubr
          -10 -20 21 callgsubr
          -9 157 1 190 hintmask 11101011
          -77 callsubr
          hintmask 11011011
          -22 callsubr
          hintmask 11100101
          -80 callsubr
          -245 -213 rmoveto
          hintmask 11101011
          -83 callsubr
        </CharString>
        <CharString name="ndotaccent">
          -28 callsubr
          -10 -20 74 150 21 callgsubr
          10 170 -31 190 hintmask 11011001
          -77 callsubr
          hintmask 10111010
          -22 callsubr
          hintmask 11010101
          -80 callsubr
          hintmask 11011010
          -159 580 -93 callgsubr
        </CharString>
        <CharString name="nine">
          -73 -155 72 callsubr
          27 181 170 182 vstem
          27 321 -63 callsubr
        </CharString>
        <CharString name="nine.denominator">
          -221 -6 -19 callsubr
          289 -93 callsubr
        </CharString>
        <CharString name="nine.lnum">
          -54 -10 72 callsubr
          36 181 170 182 vstem
          36 466 -63 callsubr
        </CharString>
        <CharString name="nine.numerator">
          -221 280 -19 callsubr
          575 -93 callsubr
        </CharString>
        <CharString name="nineinferior">
          -221 -96 -19 callsubr
          199 -93 callsubr
        </CharString>
        <CharString name="ninesuperior">
          -221 370 -19 callsubr
          665 -93 callsubr
        </CharString>
        <CharString name="notequal">
          -219 9 -21 123 120 90 120 130 -20 hstem
          60 321 rmoveto
          140 hlineto
          -42 -90 rlineto
          -98 -120 42 hlineto
          -43 -91 65 -32 58 123 rlineto
          201 120 -145 hlineto
          43 90 rlineto
          102 120 -46 hlineto
          46 96 -65 34 -61 -130 rlineto
          -197 hlineto
          endchar
        </CharString>
        <CharString name="ntilde">
          -28 callsubr
          -10 -20 66 107 -59 59 -59 110 -40 callgsubr
          hintmask 1101001010000000
          -77 callsubr
          hintmask 1011001010000000
          -22 callsubr
          hintmask 1101000110000000
          -80 callsubr
          -180 572 rmoveto
          hintmask 1100011010000000
          -65 callsubr
          hintmask 1101001010000000
          -3 -6 -48 -44 vhcurveto
          hintmask 1100011010000000
          -36 callgsubr
          hintmask 1101001010000000
          -64 callgsubr
          hintmask 1100101010000000
          2 1 46 45 vhcurveto
          hintmask 1101001010000000
          -47 callgsubr
        </CharString>
        <CharString name="numbersign">
          95 21 -21 170 140 87 130 183 -20 hstem
          721 527 rmoveto
          -127 58 callsubr
          -60 58 callsubr
          -147 -130 115 hlineto
          -20 -87 rlineto
          -146 -140 112 hlineto
          -42 -170 rlineto
          151 hlineto
          41 170 rlineto
          60 hlineto
          -42 -170 rlineto
          151 hlineto
          41 170 rlineto
          162 140 -128 hlineto
          20 87 rlineto
          159 hlineto
          -389 -87 rmoveto
          20 87 rlineto
          60 hlineto
          -20 -87 rlineto
          endchar
        </CharString>
        <CharString name="o">
          -48 -74 callgsubr
          hstem
          -25 callsubr
          195 vstem
          -106 callsubr
          endchar
        </CharString>
        <CharString name="oacute">
          -48 -74 callgsubr
          194 -20 hstem
          -25 callsubr
          195 vstem
          -106 callsubr
          250 467 -103 callsubr
        </CharString>
        <CharString name="obreve">
          -48 -74 callgsubr
          32 -6 callsubr
          -25 callsubr
          195 hintmask 11101100
          -106 callsubr
          93 386 rmoveto
          hintmask 11011100
          -90 callsubr
          hintmask 11101100
          -51 callsubr
        </CharString>
        <CharString name="ocircumflex">
          -48 -74 callgsubr
          194 -20 hstem
          -25 callsubr
          195 vstem
          -106 callsubr
          8 310 -104 callsubr
        </CharString>
        <CharString name="odblgrave">
          -48 -74 callgsubr
          194 -20 hstem
          -25 callsubr
          195 vstem
          -106 callsubr
          170 293 -97 callsubr
        </CharString>
        <CharString name="odieresis">
          -48 -74 callgsubr
          45 140 hstemhm
          19 195 -100 -18 callsubr
          -100 195 hintmask 11110010
          -106 callsubr
          hintmask 11101100
          56 318 -100 callsubr
        </CharString>
        <CharString name="odotbelow">
          -48 -27 callsubr
          53 -72 callsubr
          hstem
          19 195 7 170 9 195 vstem
          -106 callsubr
          177 -476 -93 callgsubr
        </CharString>
        <CharString name="oe">
          329 -10 132 -132 160 55 114 57 160 -135 135 hstemhm
          -25 callsubr
          203 hintmask 10110110
          305 -10 rmoveto
          70 48 20 60 74 hvcurveto
          -59 74 50 -21 71 hhcurveto
          115 98 54 89 46 hvcurveto
          -156 46 rlineto
          -33 -13 -41 -24 -43 hhcurveto
          -52 -40 35 48 -3 hvcurveto
          369 hlineto
          3 16 2 22 20 vvcurveto
          159 -118 114 -166 -77 -57 -25 -61 -62 vhcurveto
          59 -54 -60 27 -80 hhcurveto
          -166 -118 -113 -160 -160 118 -113 168 hvcurveto
          hintmask 01110110
          2 160 rmoveto
          -56 -37 45 68 68 37 45 56 56 37 -45 -68 -68 -37 -45 -56 hvcurveto
          290 169 rmoveto
          hintmask 10101110
          50 5 35 32 50 hhcurveto
          49 35 -32 -50 6 hvcurveto
          endchar
        </CharString>
        <CharString name="ogonek">
          -330 -193 -21 239 -20 hstem
          74 117 vstem
          226 -214 1 callgsubr
          -56 24 rlineto
          -88 -38 -45 -53 -48 -39 callgsubr
          endchar
        </CharString>
        <CharString name="ograve">
          -48 -74 callgsubr
          195 -20 hstem
          -25 callsubr
          195 vstem
          -106 callsubr
          35 294 -86 callgsubr
          endchar
        </CharString>
        <CharString name="ohungarumlaut">
          -48 -74 callgsubr
          195 -20 hstem
          -25 callsubr
          195 vstem
          -106 callsubr
          119 468 -70 callsubr
        </CharString>
        <CharString name="oinvertedbreve">
          -48 -74 callgsubr
          32 -18 callgsubr
          -25 callsubr
          195 hintmask 11011100
          -106 callsubr
          93 386 rmoveto
          hintmask 11101100
          -92 callsubr
          hintmask 11011100
          -38 callsubr
        </CharString>
        <CharString name="omacron">
          -48 -74 callgsubr
          71 113 hstem
          -25 callsubr
          195 vstem
          -106 callsubr
          249 344 -61 callgsubr
        </CharString>
        <CharString name="one">
          -115 0 170 401 -20 hstem
          202 194 vstem
          396 170 rmoveto
          401 -194 vlineto
          -32 -16 -107 -63 -38 hhcurveto
          -174 vlineto
          51 86 36 31 24 hvcurveto
          -199 65 callsubr
        </CharString>
        <CharString name="one.denominator">
          -292 0 27 callsubr
          107 -16 callgsubr
        </CharString>
        <CharString name="one.lnum">
          -112 0 170 276 174 95 -20 hstem
          207 194 vstem
          401 170 rmoveto
          545 -194 vlineto
          -4 -2 -91 -91 -72 hhcurveto
          -174 vlineto
          54 89 55 31 22 hvcurveto
          -362 65 callsubr
        </CharString>
        <CharString name="one.numerator">
          -341 288 107 336 -20 hstemhm
          30 24 callgsubr
          hintmask 11010000
          233 395 rmoveto
          336 -110 vlineto
          hintmask 11100000
          -66 callsubr
          endchar
        </CharString>
        <CharString name="oneeighth">
          374 22 callgsubr
          13 107 -60 105 291 -20 hstemhm
          41 24 callgsubr
          374 -58 callsubr
          hintmask 0111011010100000
          260 -87 callsubr
          67 61 callgsubr
          hintmask 1011010110100000
          -110 hlineto
          hintmask 1011011010100000
          -2 -1 -51 -57 -41 hhcurveto
          -109 vlineto
          hintmask 1011011010010000
          31 48 34 19 14 hvcurveto
          -221 -76 -107 253 107 vlineto
          692 -262 rmoveto
          49 -33 30 -46 23 vhcurveto
          hintmask 1010111001100000
          -78 callgsubr
          hintmask 1011011010010000
          -95 callsubr
          hintmask 1010111001100000
          -62 callgsubr
        </CharString>
        <CharString name="onehalf">
          371 0 107 -96 -21 298 107 -56 106 286 -20 hstemhm
          37 24 callgsubr
          631 124 hintmask 01101101
          254 -87 callsubr
          69 61 callgsubr
          hintmask 10101011
          -110 hlineto
          hintmask 10101101
          -66 callsubr
          689 -395 rmoveto
          107 -206 -44 callgsubr
          hintmask 10011101
          96 -65 49 -114 -102 -70 callgsubr
          -63 -27 hvcurveto
          -108 -45 -27 -51 -114 vvcurveto
          endchar
        </CharString>
        <CharString name="oneinferior">
          -292 -90 27 callsubr
          17 -16 callgsubr
        </CharString>
        <CharString name="onequarter">
          358 11 -21 94 107 97 107 336 -20 hstemhm
          40 24 callgsubr
          575 104 hintmask 11111010
          297 -87 callsubr
          29 61 callgsubr
          hintmask 11110110
          -110 hlineto
          hintmask 11111010
          -66 callsubr
          612 -394 rmoveto
          83 64 107 -64 250 -74 vlineto
          -249 -250 rlineto
          -107 215 -83 vlineto
          4 311 rmoveto
          -121 -118 vlineto
          endchar
        </CharString>
        <CharString name="onesuperior">
          -341 378 107 336 -20 hstemhm
          30 24 callgsubr
          hintmask 11010000
          233 485 rmoveto
          336 -110 vlineto
          hintmask 11100000
          -66 callsubr
          endchar
        </CharString>
        <CharString name="onethird">
          379 -6 110 -93 -21 190 99 9 107 -50 101 285 -20 hstemhm
          40 24 callgsubr
          639 126 -111 111 hintmask 0111011010000000
          247 -87 callsubr
          79 61 callgsubr
          hintmask 1011010110000000
          -110 hlineto
          hintmask 1011011010000000
          -66 callsubr
          499 -401 rmoveto
          98 101 35 93 56 -41 49 -67 9 hvcurveto
          60 9 38 33 48 vvcurveto
          hintmask 1010111010000000
          68 -79 52 -105 -69 -74 -19 -37 -35 vhcurveto
          69 -89 rlineto
          26 28 30 18 52 hhcurveto
          24 43 -4 -22 -30 -57 -10 -77 hvcurveto
          -24 -99 25 hlineto
          hintmask 1011011001000000
          -34 callgsubr
        </CharString>
        <CharString name="oogonek">
          -48 -193 -21 206 158 0 226 0 160 hstemhm
          19 195 -9 117 78 195 hintmask 11010110
          357 74 callgsubr
          23 25 28 45 26 hvcurveto
          133 33 70 109 121 vvcurveto
          -85 callsubr
          vhcurveto
          hintmask 11011010
          -61 callsubr
          -136 89 -122 168 -13 hvcurveto
          hintmask 10100110
          -47 -33 -24 -38 -35 -39 callgsubr
          hintmask 10101010
          -143 477 rmoveto
          70 39 43 54 54 39 -43 -70 -70 -39 -43 -54 -54 -39 43 70 vhcurveto
          endchar
        </CharString>
        <CharString name="ordfeminine">
          -211 333 244 -72 72 49 89 hstemhm
          33 122 96 130 hintmask 10111000
          155 333 rmoveto
          45 41 22 43 31 hvcurveto
          3 -14 rlineto
          -34 7 23 -17 46 hhcurveto
          16 22 2 5 23 hvcurveto
          112 vlineto
          -23 1 -8 9 25 vvcurveto
          71 vlineto
          104 -63 53 -112 -60 -51 -15 -32 -47 vhcurveto
          38 -82 rlineto
          26 37 31 14 39 hhcurveto
          42 16 -17 -35 hvcurveto
          -11 vlineto
          9 -17 -24 5 -27 hhcurveto
          -88 -62 -52 -74 -68 52 -50 70 hvcurveto
          39 95 rmoveto
          -22 -17 15 20 hvcurveto
          hintmask 01111000
          24 22 18 29 13 19 -4 -6 13 vhcurveto
          -27 vlineto
          -9 -6 -10 -10 -7 vhcurveto
          -8 -11 -17 -6 -13 hhcurveto
          endchar
        </CharString>
        <CharString name="ordmasculine">
          -224 333 112 158 112 hstem
          28 133 116 133 vstem
          219 333 rmoveto
          126 65 90 101 33 callsubr
          hvcurveto
          -58 191 rmoveto
          16 callsubr
        </CharString>
        <CharString name="oslash">
          50 callsubr
          hstemhm
          -25 callsubr
          195 hintmask 01101100
          114 -6 rmoveto
          32 36 rlineto
          hintmask 10011100
          -2 callgsubr
          hintmask 01101100
          9 callgsubr
          hintmask 10101100
          -42 callsubr
        </CharString>
        <CharString name="oslashacute">
          50 callsubr
          218 -20 hstemhm
          -25 callsubr
          195 hintmask 01101110
          464 50 callgsubr
          -251 -562 rmoveto
          32 36 rlineto
          hintmask 10011110
          -2 callgsubr
          hintmask 01101110
          9 callgsubr
          hintmask 10101110
          -42 callsubr
        </CharString>
        <CharString name="otilde">
          -48 -74 callgsubr
          36 -49 callsubr
          -25 callsubr
          195 hintmask 11100110
          -106 callsubr
          157 309 -90 callgsubr
        </CharString>
        <CharString name="p">
          -15 47 callgsubr
          48 54 callsubr
          194 hintmask 11101010
          402 -58 callgsubr
        </CharString>
        <CharString name="paragraph">
          43 -59 -21 650 140 hstem
          34 157 45 160 31 160 vstem
          34 445 rmoveto
          -152 82 -105 120 vhcurveto
          -268 160 268 31 -268 160 650 70 140 -341 vlineto
          -179 -103 -96 -169 hvcurveto
          157 5 rmoveto
          65 19 50 26 5 vhcurveto
          -242 vlineto
          -26 5 -19 51 66 vvcurveto
          236 -122 rmoveto
          -31 242 31 hlineto
          endchar
        </CharString>
        <CharString name="parenleft">
          -320 -45 -21 838 -20 hstem
          25 177 vstem
          25 348 rmoveto
          -143 76 -148 82 -123 vhcurveto
          138 67 rlineto
          -67 126 -52 109 109 vvcurveto
          145 93 174 31 50 vhcurveto
          -145 58 rlineto
          -88 -150 -68 -139 -135 vvcurveto
          endchar
        </CharString>
        <CharString name="parenright">
          -321 -45 -21 838 -20 hstem
          139 177 vstem
          316 348 rmoveto
          135 -68 139 -88 150 vhcurveto
          -145 -58 rlineto
          31 -50 93 -174 -145 vvcurveto
          -109 -52 -109 -67 -126 vhcurveto
          138 -67 rlineto
          82 123 76 148 143 vvcurveto
          endchar
        </CharString>
        <CharString name="partialdiff">
          -76 -10 139 175 139 119 154 hstem
          11 182 170 191 vstem
          257 -10 rmoveto
          183 114 152 236 217 -97 121 -160 -76 -70 -27 -46 -59 hvcurveto
          103 -108 rlineto
          17 24 37 10 27 hhcurveto
          53 32 -37 -65 11 hvcurveto
          3 -15 1 -18 -18 vvcurveto
          23 -24 -34 11 -45 hhcurveto
          -137 -132 -99 -139 -123 104 -92 142 hvcurveto
          14 139 rmoveto
          -43 -35 37 47 51 40 40 50 45 35 -34 -45 -51 -46 -45 -46 hvcurveto
          endchar
        </CharString>
        <CharString name="percent">
          189 51 callsubr
          33 68 callsubr
          73 68 callsubr
          hintmask 1111011110000000
          211 404 -81 callgsubr
          429 -504 -81 callgsubr
          -440 -90 rmoveto
          263 347 271 309 rlineto
          hintmask 1110111110000000
          53 callsubr
        </CharString>
        <CharString name="period">
          -408 0 184 hstem
          50 154 vstem
          204 hmoveto
          -40 callsubr
          endchar
        </CharString>
        <CharString name="periodcentered">
          6 callgsubr
        </CharString>
        <CharString name="perthousand">
          596 51 callsubr
          36 68 callsubr
          73 68 callsubr
          50 68 callsubr
          hintmask 1111011111100000
          214 404 -81 callgsubr
          429 -504 -81 callgsubr
          406 -90 -81 callgsubr
          -846 -90 rmoveto
          263 347 271 309 rlineto
          hintmask 1110111111100000
          53 callsubr
        </CharString>
        <CharString name="pi">
          20 -10 159 -128 -21 362 160 hstemhm
          97 189 70 190 hintmask 10111000
          356 362 rmoveto
          -220 vlineto
          -85 callgsubr
          153 80 160 -599 -160 70 vlineto
          hintmask 01111000
          -362 189 362 vlineto
          endchar
        </CharString>
        <CharString name="plus">
          -234 206 -21 95 150 95 -20 hstem
          129 170 vstem
          299 430 rmoveto
          95 -170 -95 -85 -150 85 -95 170 95 85 150 vlineto
          endchar
        </CharString>
        <CharString name="plusminus">
          -182 1 150 161 150 115 -20 hstem
          155 170 vstem
          429 35 callgsubr
          276 461 rmoveto
          115 -170 -115 -105 -150 105 -115 170 115 105 150 vlineto
          endchar
        </CharString>
        <CharString name="product">
          61 -69 -21 640 160 hstem
          111 185 131 185 vstem
          427 -90 rmoveto
          185 640 80 160 -661 -160 80 -640 185 640 131 hlineto
          endchar
        </CharString>
        <CharString name="q">
          -15 -192 -21 203 28 callgsubr
          -190 236 -211 165 hintmask 11101100
          73 callgsubr
          -174 vlineto
          -71 60 -46 71 vhcurveto
          hintmask 11101010
          29 43 4 6 33 -59 callgsubr
          hintmask 11011100
          -35 2 -11 12 36 vvcurveto
          519 vlineto
          hintmask 11011001
          -42 callgsubr
        </CharString>
        <CharString name="q.alt">
          -15 -193 -21 204 28 callgsubr
          -165 165 hintmask 11011100
          73 callgsubr
          -292 190 740 vlineto
          hintmask 11011010
          -42 callgsubr
        </CharString>
        <CharString name="question">
          -167 0 164 402 153 hstem
          98 155 44 165 vstem
          250 259 rmoveto
          44 74 15 58 40 vhcurveto
          59 40 21 53 64 vvcurveto
          150 -116 54 -102 -96 -80 -48 -81 -34 vhcurveto
          121 -86 rlineto
          19 15 19 43 48 hhcurveto
          32 28 -20 -30 -55 -93 -39 -30 -16 hvcurveto
          -73 -38 -6 -52 -57 vvcurveto
          158 -259 rmoveto
          164 -155 -164 vlineto
          endchar
        </CharString>
        <CharString name="questiondown">
          -175 -213 153 402 164 hstem
          28 165 44 155 vstem
          240 247 rmoveto
          -44 -74 -15 -58 -40 vhcurveto
          -59 -40 -21 -53 -64 vvcurveto
          -150 116 -54 102 96 80 48 81 34 vhcurveto
          -121 86 rlineto
          -19 -15 -19 -43 -48 hhcurveto
          -32 -28 20 30 55 93 39 30 16 hvcurveto
          73 38 6 52 57 vvcurveto
          -158 259 rmoveto
          -164 155 164 vlineto
          endchar
        </CharString>
        <CharString name="quotedbl">
          -186 496 234 hstem
          53 160 50 31 callgsubr
          370 hmoveto
          234 -160 -234 vlineto
          endchar
        </CharString>
        <CharString name="quotedblbase">
          -128 -130 -21 151 184 hstem
          50 197 40 197 vstem
          205 -151 rmoveto
          -10 callsubr
          366 hmoveto
          -10 callsubr
          endchar
        </CharString>
        <CharString name="quotedblleft">
          -120 439 160 131 -20 hstem
          49 197 52 197 vstem
          91 730 rmoveto
          -9 callgsubr
          120 hmoveto
          -9 callgsubr
          endchar
        </CharString>
        <CharString name="quotedblright">
          -131 474 -21 131 160 hstem
          43 197 52 197 vstem
          198 453 rmoveto
          -11 callsubr
          378 hmoveto
          -11 callsubr
          endchar
        </CharString>
        <CharString name="quoteleft">
          -369 460 -21 291 -20 hstem
          49 197 vstem
          91 730 rmoveto
          -9 callgsubr
          endchar
        </CharString>
        <CharString name="quoteright">
          -380 474 -21 291 -20 hstem
          43 197 vstem
          198 453 rmoveto
          -11 callsubr
          endchar
        </CharString>
        <CharString name="quotesinglbase">
          -365 -130 -21 172 -21 184 -20 hstem
          50 197 vstem
          205 -151 rmoveto
          -10 callsubr
          endchar
        </CharString>
        <CharString name="quotesingle">
          -396 496 234 hstem
          53 31 callgsubr
          endchar
        </CharString>
        <CharString name="r">
          3 callgsubr
          hstemhm
          48 174 -174 190 hintmask 10110000
          -69 callsubr
          hintmask 11010000
          5 callgsubr
          hintmask 11001000
          -43 callgsubr
          endchar
        </CharString>
        <CharString name="racute">
          -48 callsubr
          11 366 -103 callsubr
        </CharString>
        <CharString name="radical">
          -35 21 -21 266 129 395 -20 hstem
          6 266 rmoveto
          123 hlineto
          77 -266 rlineto
          244 hlineto
          152 790 rlineto
          -164 hlineto
          -112 -663 -73 268 rlineto
          -247 hlineto
          endchar
        </CharString>
        <CharString name="rcaron">
          -246 21 69 callsubr
          0 47 -37 -20 214 34 callgsubr
          hintmask 10011100
          -69 callsubr
          hintmask 11001100
          5 callgsubr
          hintmask 11001010
          -43 callgsubr
          -327 324 rmoveto
          hintmask 10101100
          -100 callgsubr
        </CharString>
        <CharString name="rcommaaccent">
          -246 -3 callgsubr
          67 36 callgsubr
          hstemhm
          48 163 -163 190 hintmask 11011000
          -69 callsubr
          hintmask 11101000
          5 callgsubr
          hintmask 11100100
          -43 callgsubr
          -248 -577 rmoveto
          hintmask 11101000
          -83 callsubr
        </CharString>
        <CharString name="rdblgrave">
          -48 callsubr
          -101 192 -97 callsubr
        </CharString>
        <CharString name="rdotbelow">
          -246 -27 callsubr
          84 36 callgsubr
          hstemhm
          48 180 -180 190 hintmask 11011000
          -69 callsubr
          hintmask 11101000
          5 callgsubr
          hintmask 11100100
          -43 callgsubr
          hintmask 11101000
          -177 -577 -93 callgsubr
        </CharString>
        <CharString name="registered">
          185 -7 63 401 115 79 64 hstem
          38 74 139 132 82 130 141 74 vstem
          421 -7 rmoveto
          222 167 155 207 206 -167 154 -222 -222 -161 -154 -206 -207 161 -155 222 hvcurveto
          1 63 rmoveto
          -182 -128 133 165 165 128 132 182 181 133 -132 -167 -170 -137 -126 -177 hvcurveto
          -171 88 rmoveto
          132 131 18 hlineto
          81 -131 rlineto
          147 hlineto
          -96 157 rlineto
          37 27 25 47 47 vvcurveto
          73 -61 77 -84 vhcurveto
          -199 hlineto
          132 -185 rmoveto
          70 51 vlineto
          14 17 -4 -31 -28 -14 -7 -15 hvcurveto
          endchar
        </CharString>
        <CharString name="ring">
          -388 556 54 66 54 hstem
          20 77 80 77 vstem
          20 643 -89 callgsubr
          endchar
        </CharString>
        <CharString name="rinvertedbreve">
          3 callgsubr
          52 162 -81 81 20 callgsubr
          hintmask 10110100
          -69 callsubr
          hintmask 11010100
          5 callgsubr
          hintmask 11001010
          -43 callgsubr
          -182 285 rmoveto
          hintmask 11010100
          -92 callsubr
          hintmask 11001100
          -38 callsubr
        </CharString>
        <CharString name="s">
          -8 callsubr
          hstem
          27 176 98 183 vstem
          -104 callgsubr
          endchar
        </CharString>
        <CharString name="s_t">
          248 -10 133 -133 172 -152 -21 394 154 -131 131 -11 -20 145 79 hstemhm
          35 166 111 173 -133 76 143 190 hintmask 0101001110100000
          870 25 callsubr
          vlineto
          hintmask 1000011101100000
          143 -103 vlineto
          129 -19 75 -185 -144 -61 -66 -84 -29 5 -24 14 -22 vhcurveto
          hintmask 1000101110100000
          27 -45 -62 5 -28 hhcurveto
          -105 -96 -74 -114 -82 49 -32 138 -40 hvcurveto
          67 -19 23 -6 -22 vvcurveto
          -17 -15 -8 -33 -53 -64 21 38 -69 vhcurveto
          -69 -129 rlineto
          -36 64 112 -27 85 hhcurveto
          132 83 65 115 83 -43 37 -157 43 hvcurveto
          -60 16 -24 6 23 vvcurveto
          19 18 9 30 37 44 -13 -34 68 vhcurveto
          69 121 rlineto
          hintmask 1000011101100000
          -25 28 -14 35 31 vvcurveto
          42 28 35 51 53 10 -37 -88 1 vhcurveto
          -65 hlineto
          hintmask 0011001110100000
          -143 65 -241 48 callgsubr
        </CharString>
        <CharString name="sacute">
          -8 callsubr
          193 -20 hstem
          27 176 98 183 vstem
          -104 callgsubr
          134 740 -103 callsubr
        </CharString>
        <CharString name="scaron">
          -8 callsubr
          0 36 49 callgsubr
          27 176 98 183 hintmask 11011100
          -104 callgsubr
          -204 698 rmoveto
          hintmask 10111100
          -100 callgsubr
        </CharString>
        <CharString name="schwa">
          -53 -10 135 82 114 79 136 hstem
          388 202 vstem
          302 -10 rmoveto
          188 100 128 152 141 -103 125 -185 -128 -91 -59 -84 -43 hvcurveto
          161 -46 rlineto
          33 12 42 20 41 hhcurveto
          44 44 -23 -56 4 hvcurveto
          -369 hlineto
          -3 -16 -2 -22 -20 vvcurveto
          -145 100 -128 188 vhcurveto
          3 135 rmoveto
          -48 -33 31 51 -6 hvcurveto
          174 hlineto
          -51 -6 -33 -31 -48 hhcurveto
          endchar
        </CharString>
        <CharString name="scircumflex">
          -8 callsubr
          193 -20 hstem
          27 176 98 183 vstem
          -104 callgsubr
          -108 583 -104 callsubr
        </CharString>
        <CharString name="sdotbelow">
          -161 -27 callsubr
          53 133 283 131 hstemhm
          27 176 -36 170 -36 183 hintmask 11110100
          -104 callgsubr
          hintmask 11101000
          72 -203 -93 callgsubr
        </CharString>
        <CharString name="section">
          -111 -88 180 455 168 hstemhm
          38 192 -172 184 73 186 -186 198 hintmask 11101000
          488 232 rmoveto
          3 8 10 28 38 vvcurveto
          133 -126 41 -102 4 vhcurveto
          -22 1 -21 2 26 vvcurveto
          19 11 15 34 41 22 -23 -24 15 vhcurveto
          145 68 rlineto
          50 -35 -71 97 -129 hhcurveto
          -133 -92 -102 -103 -51 22 -38 10 -15 hvcurveto
          hintmask 11010100
          -1 -9 -11 -16 -40 vvcurveto
          -100 69 -79 148 -12 vhcurveto
          18 -1 22 -2 -22 vvcurveto
          -22 -22 -11 -29 -32 -34 13 38 -34 vhcurveto
          -121 -116 rlineto
          -35 27 88 -80 115 hhcurveto
          96 144 55 165 50 -13 32 -12 18 hvcurveto
          -246 82 rmoveto
          10 4 9 5 4 vhcurveto
          0 16 -4 14 16 24 -8 -25 -8 -3 -10 -6 -5 vhcurveto
          -21 7 -49 -7 37 vvcurveto
          endchar
        </CharString>
        <CharString name="semicolon">
          -357 -136 -21 178 -21 335 184 hstem
          76 154 vstem
          230 75 callsubr
          101 -492 16 callgsubr
        </CharString>
        <CharString name="servicemark">
          189 401 82 -67 -21 234 81 6 -20 hstemhm
          363 120 193 120 hintmask 10101100
          579 579 rmoveto
          -15 callgsubr
          -293 -28 rmoveto
          hintmask 10011100
          22 -49 -49 12 -41 hhcurveto
          -77 -55 -45 -63 -47 29 -23 87 -23 hvcurveto
          44 -9 13 -5 -8 vvcurveto
          -7 -10 -3 -20 -33 -40 13 22 -43 vhcurveto
          -43 -86 rlineto
          hintmask 01101100
          -21 40 69 -16 53 hhcurveto
          82 52 39 64 50 -30 24 -94 24 hvcurveto
          -42 8 -11 5 9 vvcurveto
          8 12 3 17 27 26 -9 -19 43 vhcurveto
          endchar
        </CharString>
        <CharString name="seven">
          -69 -105 -21 537 173 hstem
          38 -126 19 callsubr
        </CharString>
        <CharString name="seven.denominator">
          -245 22 35 callsubr
          1 -51 callgsubr
        </CharString>
        <CharString name="seven.lnum">
          -64 22 -21 537 173 hstem
          44 1 19 callsubr
        </CharString>
        <CharString name="seven.numerator">
          -244 312 35 callsubr
          291 -51 callgsubr
        </CharString>
        <CharString name="seveneighths">
          331 22 callgsubr
          60 105 182 109 hstemhm
          575 -58 callsubr
          hintmask 0111101010000000
          199 -87 callsubr
          844 68 rmoveto
          49 -33 30 -46 23 vhcurveto
          hintmask 1011101100000000
          -78 callgsubr
          hintmask 1011110010000000
          -95 callsubr
          hintmask 1011101100000000
          -81 callsubr
          -642 -14 -51 callgsubr
        </CharString>
        <CharString name="seveninferior">
          -244 -68 35 callsubr
          -89 -51 callgsubr
        </CharString>
        <CharString name="sevensuperior">
          -245 402 35 callsubr
          381 -51 callgsubr
        </CharString>
        <CharString name="six">
          -76 callgsubr
        </CharString>
        <CharString name="six.denominator">
          -221 -6 -23 callsubr
          148 -92 callgsubr
        </CharString>
        <CharString name="six.lnum">
          -76 callgsubr
        </CharString>
        <CharString name="six.numerator">
          -221 280 -23 callsubr
          434 -92 callgsubr
        </CharString>
        <CharString name="sixinferior">
          -221 -96 -23 callsubr
          58 -92 callgsubr
        </CharString>
        <CharString name="sixsuperior">
          -221 370 -23 callsubr
          524 -92 callgsubr
        </CharString>
        <CharString name="slash">
          115 5 callsubr
          541 -12 callsubr
          -515 -710 rlineto
          209 hlineto
          516 710 rlineto
          endchar
        </CharString>
        <CharString name="space">
          -437 endchar
        </CharString>
        <CharString name="sterling">
          -76 64 callsubr
          87 140 174 153 hstemhm
          74 168 hintmask 01011100
          61 248 rmoveto
          74 hlineto
          -12 -50 -33 -49 -41 -24 73 callsubr
          hintmask 10011100
          10 callgsubr
          hintmask 00111100
          -43 -45 15 -42 hhcurveto
          hintmask 10011100
          -22 -24 -4 -11 -32 hvcurveto
          33 34 20 32 9 36 rrcurveto
          178 140 -189 hlineto
          -18 48 -25 39 35 0 callgsubr
          -50 23 -47 19 -46 hvcurveto
          -55 hlineto
          endchar
        </CharString>
        <CharString name="summation">
          -79 0 160 410 140 hstem
          545 -12 callsubr
          -506 -125 hlineto
          196 -229 -203 -231 rlineto
          -125 513 160 -303 4 vlineto
          178 205 -169 197 rlineto
          4 294 vlineto
          endchar
        </CharString>
        <CharString name="t">
          -239 -11 173 67 callgsubr
          hstem
          84 -12 callgsubr
          -79 callgsubr
          endchar
        </CharString>
        <CharString name="t.alt">
          -231 21 -21 356 170 165 -20 hstem
          105 195 vstem
          300 hmoveto
          356 120 170 -120 165 -195 -165 -80 -170 80 -356 vlineto
          endchar
        </CharString>
        <CharString name="tbar">
          -238 -11 173 65 109 47 143 165 -20 hstem
          85 -12 callgsubr
          384 0 callsubr
          18 103 109 -103 47 103 143 -103 165 -190 -165 -3 callsubr
          -47 -65 -109 65 -85 48 callgsubr
        </CharString>
        <CharString name="tcaron">
          -239 -11 173 221 143 204 -20 hstem
          84 -12 callgsubr
          -79 callgsubr
          106 701 -103 callsubr
        </CharString>
        <CharString name="tdotbelow">
          -239 -27 callsubr
          52 173 17 callgsubr
          -122 170 hintmask 11111000
          -79 callgsubr
          hintmask 11110100
          -95 -242 -93 callgsubr
        </CharString>
        <CharString name="thorn">
          -63 -192 -21 182 170 235 170 166 -20 hstem
          48 195 143 195 vstem
          581 255 rmoveto
          157 -120 132 -142 -34 -28 -7 -12 -14 vhcurveto
          185 -195 -923 195 200 vlineto
          -11 9 30 -7 30 hhcurveto
          144 125 133 153 hvcurveto
          -195 4 rmoveto
          -71 -33 -49 -48 -28 -34 22 18 vhcurveto
          148 vlineto
          34 19 18 13 27 hhcurveto
          48 31 -45 -70 hvcurveto
          endchar
        </CharString>
        <CharString name="three">
          -81 -147 174 136 132 120 161 hstemhm
          333 204 -186 186 hintmask 11110000
          408 237 rmoveto
          74 14 55 70 79 vvcurveto
          106 -99 70 -148 -108 -106 -37 -53 -47 vhcurveto
          120 -141 rlineto
          46 31 42 24 46 hhcurveto
          41 24 -19 -32 -42 -42 -27 -64 hvcurveto
          -35 -132 31 hlineto
          hintmask 11101000
          90 38 -21 -50 -45 -30 -20 -68 -56 -42 14 30 -38 hvcurveto
          -97 -138 rlineto
          -54 63 78 -26 102 hhcurveto
          176 109 78 126 92 -58 74 -82 14 hvcurveto
          endchar
        </CharString>
        <CharString name="three.denominator">
          -240 -6 -41 callsubr
          -6 -98 callgsubr
          hintmask 11101000
          -34 callgsubr
        </CharString>
        <CharString name="three.lnum">
          -76 -9 174 126 157 105 166 hstemhm
          330 204 -186 198 hintmask 11101000
          263 -9 rmoveto
          133 150 57 149 89 -54 80 -87 14 hvcurveto
          hintmask 11110000
          75 15 54 53 77 vvcurveto
          110 -110 84 -148 -90 -107 -31 -59 -53 vhcurveto
          120 -141 rlineto
          23 18 38 42 75 hhcurveto
          11 42 -1 -37 -50 -79 -17 -88 hvcurveto
          -32 -157 33 hlineto
          hintmask 11101000
          118 66 -16 -52 -42 -44 -16 -45 -91 -28 66 8 -8 hvcurveto
          -97 -132 rlineto
          -80 46 76 -36 106 hhcurveto
          endchar
        </CharString>
        <CharString name="three.numerator">
          -240 279 -41 callsubr
          279 -98 callgsubr
          hintmask 11101000
          -34 callgsubr
        </CharString>
        <CharString name="threeeighths">
          387 22 callgsubr
          4 110 -54 105 25 99 66 101 hstemhm
          282 126 -111 111 223 -58 callsubr
          hintmask 0111011101001000
          300 -87 callsubr
          799 68 rmoveto
          49 -33 30 -46 23 vhcurveto
          hintmask 1010111100110000
          -78 callgsubr
          hintmask 1011011101001000
          -95 callsubr
          hintmask 1010111100110000
          -81 callsubr
          hintmask 1011011101010000
          -547 -26 -98 callgsubr
          hintmask 1011011011010000
          -34 callgsubr
        </CharString>
        <CharString name="threeinferior">
          -240 -96 -41 callsubr
          -96 -98 callgsubr
          hintmask 11101000
          93 55 -10 -31 -26 -42 -9 -48 -53 -34 21 24 -25 -9 callsubr
        </CharString>
        <CharString name="threequarters">
          365 11 -21 94 107 88 110 76 99 66 101 hstemhm
          281 126 -111 111 418 104 hintmask 11111101
          326 -87 callsubr
          686 -64 rmoveto
          83 64 107 -64 250 -74 vlineto
          -249 -250 rlineto
          -107 215 -83 vlineto
          4 311 rmoveto
          -121 -118 vlineto
          -499 88 -98 callgsubr
          hintmask 11111011
          -34 callgsubr
        </CharString>
        <CharString name="threesuperior">
          -240 369 -41 callsubr
          369 -98 callgsubr
          hintmask 11101000
          93 55 -10 -31 -26 -42 -9 -48 -63 -32 29 16 -17 -9 callsubr
        </CharString>
        <CharString name="tilde">
          -198 572 -49 callsubr
          hintmask 10000000
          301 572 rmoveto
          hintmask 00100000
          -65 callsubr
          hintmask 10000000
          -3 -6 -48 -44 vhcurveto
          hintmask 00100000
          -36 callgsubr
          hintmask 10000000
          -64 callgsubr
          hintmask 01000000
          2 1 46 45 vhcurveto
          hintmask 10000000
          -47 callgsubr
        </CharString>
        <CharString name="trademark">
          250 422 -21 191 120 -2 -20 hstemhm
          155 120 141 120 193 120 hintmask 11011100
          370 712 rmoveto
          -310 -120 95 -191 120 191 95 hlineto
          262 -13 rmoveto
          hintmask 10111100
          -15 callgsubr
          endchar
        </CharString>
        <CharString name="two">
          -63 0 170 247 164 hstem
          340 207 vstem
          558 hmoveto
          170 -220 vlineto
          36 25 38 20 33 22 rrcurveto
          57 38 45 43 83 vvcurveto
          113 -82 67 -152 -114 -111 -38 -57 -52 vhcurveto
          120 -141 rlineto
          50 43 37 22 44 hhcurveto
          37 23 -16 -33 -24 -13 -8 -145 -78 hvcurveto
          -111 -60 -40 -65 -133 vvcurveto
          endchar
        </CharString>
        <CharString name="two.denominator">
          -214 0 2 callgsubr
          413 hmoveto
          107 -206 -10 callgsubr
          -114 -102 -70 callgsubr
          -63 -27 hvcurveto
          -108 -45 -27 -51 -114 vvcurveto
          endchar
        </CharString>
        <CharString name="two.lnum">
          -31 0 170 380 168 hstem
          365 217 vstem
          583 hmoveto
          170 -264 vlineto
          43 65 32 57 33 vhcurveto
          89 52 52 50 110 vvcurveto
          146 -93 82 -162 -130 -108 -53 -60 -53 vhcurveto
          117 -127 rlineto
          37 38 57 35 52 hhcurveto
          34 31 -15 -48 -73 -72 -35 -83 -39 hvcurveto
          -152 -72 -22 -84 -184 vvcurveto
          endchar
        </CharString>
        <CharString name="two.numerator">
          -221 286 2 callgsubr
          394 286 -77 callgsubr
        </CharString>
        <CharString name="twoinferior">
          -215 -90 2 callgsubr
          413 -90 rmoveto
          107 -206 -10 callgsubr
          -114 -102 -70 callgsubr
          -63 -27 hvcurveto
          -108 -45 -27 -51 -114 vvcurveto
          endchar
        </CharString>
        <CharString name="twosuperior">
          -221 376 2 callgsubr
          394 376 -77 callgsubr
        </CharString>
        <CharString name="twothirds">
          426 -6 110 -93 -21 190 99 7 107 -48 101 179 106 hstemhm
          302 124 502 126 -111 111 hintmask 0111011100000000
          333 -87 callsubr
          hintmask 1010111100000000
          605 -71 -98 callgsubr
          hintmask 1011011010000000
          -53 callgsubr
          -447 292 -77 callgsubr
        </CharString>
        <CharString name="u">
          36 callsubr
          hstem
          43 -57 callgsubr
          vstem
          207 -10 rmoveto
          87 69 27 65 49 -82 callgsubr
          20 26 3 7 34 -29 callsubr
          316 -36 callsubr
          -45 -31 -31 -9 -29 hhcurveto
          -36 -22 27 46 hvcurveto
          303 -190 -346 vlineto
          -123 58 -67 106 vhcurveto
          endchar
        </CharString>
        <CharString name="u.alt">
          -42 -10 160 -129 -29 callgsubr
          hstemhm
          43 -57 callgsubr
          hintmask 01111000
          572 hmoveto
          526 -36 callsubr
          hintmask 10111000
          33 callgsubr
          -346 vlineto
          -129 58 -61 117 68 68 21 59 36 vhcurveto
          hintmask 01111000
          -70 vlineto
          endchar
        </CharString>
        <CharString name="uacute">
          36 callsubr
          224 -20 hstem
          43 -57 callgsubr
          vstem
          207 -10 rmoveto
          87 69 27 65 49 -82 callgsubr
          20 26 3 7 34 -29 callsubr
          316 -36 callsubr
          -45 -31 -31 -9 -29 hhcurveto
          -36 -22 27 46 hvcurveto
          303 -190 -346 vlineto
          -123 58 -67 106 vhcurveto
          258 740 -103 callsubr
        </CharString>
        <CharString name="ubreve">
          -24 -10 160 376 66 callsubr
          43 190 149 85 -85 190 hintmask 11101010
          207 -10 rmoveto
          87 69 27 65 49 -82 callgsubr
          20 26 3 7 34 -29 callsubr
          316 -36 callsubr
          -45 -31 -31 -9 -29 hhcurveto
          -36 -22 27 46 hvcurveto
          303 -190 -346 vlineto
          -123 58 -67 106 vhcurveto
          101 659 rmoveto
          hintmask 11011100
          -90 callsubr
          hintmask 11101100
          -51 callsubr
        </CharString>
        <CharString name="ucircumflex">
          36 callsubr
          224 -20 hstem
          43 -57 callgsubr
          vstem
          207 -10 rmoveto
          87 69 27 65 49 -82 callgsubr
          20 26 3 7 34 -29 callsubr
          316 -36 callsubr
          -45 -31 -31 -9 -29 hhcurveto
          -36 -22 27 46 hvcurveto
          303 -190 -346 vlineto
          -123 58 -67 106 vhcurveto
          16 583 -104 callsubr
        </CharString>
        <CharString name="udblgrave">
          36 callsubr
          224 -20 hstem
          43 -57 callgsubr
          vstem
          207 -10 rmoveto
          87 69 27 65 49 -82 callgsubr
          20 26 3 7 34 -29 callsubr
          316 -36 callsubr
          -45 -31 -31 -9 -29 hhcurveto
          -36 -22 27 46 hvcurveto
          303 -190 -346 vlineto
          -123 58 -67 106 vhcurveto
          181 566 -97 callsubr
        </CharString>
        <CharString name="udieresis">
          36 callsubr
          75 140 hstemhm
          43 190 -118 -18 callsubr
          -119 190 hintmask 11110010
          207 -10 rmoveto
          87 69 27 65 49 -82 callgsubr
          20 26 3 7 34 -29 callsubr
          316 -36 callsubr
          -45 -31 -31 -9 -29 hhcurveto
          -36 -22 27 46 hvcurveto
          303 -190 -346 vlineto
          -123 58 -67 106 vhcurveto
          hintmask 11101100
          64 591 -100 callsubr
        </CharString>
        <CharString name="udotbelow">
          -24 -27 callsubr
          53 160 376 -20 hstemhm
          43 190 -11 170 -10 190 hintmask 11110100
          207 -10 rmoveto
          87 69 27 65 49 -82 callgsubr
          20 26 3 7 34 -29 callsubr
          316 -36 callsubr
          -45 -31 -31 -9 -29 hhcurveto
          -36 -22 27 46 hvcurveto
          303 -190 -346 vlineto
          -123 58 -67 106 vhcurveto
          hintmask 11101000
          185 -203 -93 callgsubr
        </CharString>
        <CharString name="ugrave">
          36 callsubr
          225 -20 hstem
          43 -57 callgsubr
          vstem
          207 -10 rmoveto
          87 69 27 65 49 -82 callgsubr
          20 26 3 7 34 -29 callsubr
          316 -36 callsubr
          -45 -31 -31 -9 -29 hhcurveto
          -36 -22 27 46 hvcurveto
          303 -190 -346 vlineto
          -123 58 -67 106 vhcurveto
          43 567 -86 callgsubr
          endchar
        </CharString>
        <CharString name="uhungarumlaut">
          36 callsubr
          225 -20 hstem
          43 -57 callgsubr
          vstem
          207 -10 rmoveto
          87 69 27 65 49 -82 callgsubr
          20 26 3 7 34 -29 callsubr
          316 -36 callsubr
          -45 -31 -31 -9 -29 hhcurveto
          -36 -22 27 46 hvcurveto
          303 -190 -346 vlineto
          -123 58 -67 106 vhcurveto
          127 741 -70 callsubr
        </CharString>
        <CharString name="uinvertedbreve">
          36 callsubr
          62 -18 callgsubr
          43 190 -87 87 -31 callsubr
          hintmask 11011010
          207 -10 rmoveto
          87 69 27 65 49 -82 callgsubr
          20 26 3 7 34 -29 callsubr
          316 -36 callsubr
          -45 -31 -31 -9 -29 hhcurveto
          -36 -22 27 46 hvcurveto
          303 -190 -346 vlineto
          -123 58 -67 106 vhcurveto
          98 659 rmoveto
          hintmask 11100110
          -92 callsubr
          hintmask 11011010
          -38 callsubr
        </CharString>
        <CharString name="umacron">
          36 callsubr
          101 113 hstem
          43 -57 callgsubr
          vstem
          207 -10 rmoveto
          87 69 27 65 49 -82 callgsubr
          20 26 3 7 34 -29 callsubr
          316 -36 callsubr
          -45 -31 -31 -9 -29 hhcurveto
          -36 -22 27 46 hvcurveto
          303 -190 -346 vlineto
          -123 58 -67 106 vhcurveto
          257 617 -61 callgsubr
        </CharString>
        <CharString name="underscore">
          -221 -170 170 hstem
          397 -170 rmoveto
          170 -353 -170 vlineto
          endchar
        </CharString>
        <CharString name="uni00A0">
          -437 endchar
        </CharString>
        <CharString name="uni00AD">
          14 callgsubr
        </CharString>
        <CharString name="uni015E">
          -45 40 callgsubr
          25 174 376 173 hstemhm
          44 202 136 81 -81 210 hintmask 11111100
          198 7 callgsubr
          27 rlineto
          hintmask 11111010
          119 9 113 60 155 vvcurveto
          133 -83 46 -131 41 vhcurveto
          -82 26 -50 8 37 vvcurveto
          25 23 10 34 85 103 -65 0 vhcurveto
          84 161 rlineto
          32 -64 -99 45 -103 hhcurveto
          -140 -125 -83 -157 -104 55 -53 125 -42 hvcurveto
          85 -29 73 -9 -41 vvcurveto
          -19 -15 -12 -42 -109 -119 78 0 vhcurveto
          -84 -171 75 -45 105 -30 94 -7 rlinecurve
          -42 -88 -75 callsubr
        </CharString>
        <CharString name="uni015F">
          -161 40 callgsubr
          23 132 283 131 hstemhm
          27 176 98 89 -89 183 hintmask 11111100
          125 -79 callsubr
          17 25 rlineto
          hintmask 11111010
          123 7 75 65 102 vvcurveto
          86 -49 41 -153 41 vhcurveto
          -62 16 -17 10 20 vvcurveto
          18 16 9 23 39 40 -17 -42 65 vhcurveto
          72 114 rlineto
          61 -71 -67 15 -78 hhcurveto
          -125 -90 -77 -108 -79 50 -35 148 -43 hvcurveto
          59 -17 17 -12 -18 vvcurveto
          -17 -13 -8 -27 -51 -62 25 44 -65 vhcurveto
          -65 -114 50 -47 72 -29 75 -9 rlinecurve
          -43 -89 -75 callsubr
        </CharString>
        <CharString name="uni0162">
          -38 40 callgsubr
          53 41 callgsubr
          hstemhm
          215 195 -45 84 hintmask 11110100
          184 -79 callsubr
          24 34 rlineto
          hintmask 11111000
          58 540 204 170 -604 -170 205 -540 62 hlineto
          -46 -96 rlineto
          3 15 36 6 28 hhcurveto
          hintmask 11110100
          33 22 -8 -22 -23 -25 -8 -31 -36 -40 11 9 -14 hvcurveto
          endchar
        </CharString>
        <CharString name="uni0163">
          -239 40 callgsubr
          -55 249 17 callgsubr
          32 84 hintmask 11011110
          125 7 callgsubr
          26 45 6 45 14 40 17 rlinecurve
          -34 150 rlineto
          hintmask 10111110
          -53 callsubr
          174 103 143 -103 165 -190 -165 -3 callsubr
          -241 vlineto
          -102 57 -41 73 -8 vhcurveto
          -42 -87 -75 callsubr
        </CharString>
        <CharString name="uni01C4">
          676 -2 callsubr
          0 47 157 55 callsubr
          238 198 hintmask 11011100
          -89 callsubr
          249 -356 rmoveto
          -83 callgsubr
          112 727 rmoveto
          hintmask 10111100
          -100 callgsubr
        </CharString>
        <CharString name="uni01C5">
          548 44 callgsubr
          20 55 callsubr
          238 198 hintmask 10110110
          334 hmoveto
          216 142 141 215 196 -122 158 -236 hvcurveto
          -273 -710 hlineto
          433 356 rmoveto
          hintmask 01110110
          -107 -58 -79 -102 vhcurveto
          -78 370 78 hlineto
          100 60 -74 -110 hvcurveto
          244 -356 rmoveto
          447 hlineto
          hintmask 10101110
          130 -248 vlineto
          -67 callgsubr
          40 576 rmoveto
          -100 callgsubr
        </CharString>
        <CharString name="uni01C6">
          -88 callsubr
          40 576 rmoveto
          -100 callgsubr
        </CharString>
        <CharString name="uni01C7">
          421 0 170 -160 -21 721 55 callsubr
          579 195 hintmask 10111000
          -60 callsubr
          525 33 rmoveto
          hintmask 01111000
          -84 callsubr
          endchar
        </CharString>
        <CharString name="uni01C8">
          213 42 callsubr
          46 170 356 -20 64 160 -20 55 callsubr
          381 190 hintmask 11101110
          -60 callsubr
          560 -209 -94 callgsubr
          hintmask 11110110
          -56 callgsubr
        </CharString>
        <CharString name="uni01C9">
          -17 42 callsubr
          36 159 377 -20 64 160 hstem
          44 190 173 -12 callgsubr
          44 142 rmoveto
          -85 callgsubr
          521 -190 vlineto
          347 -939 -35 callgsubr
        </CharString>
        <CharString name="uni01CA">
          590 -11 173 -141 -21 710 55 callsubr
          242 195 311 195 hintmask 01111100
          538 -88 callgsubr
          499 -316 rmoveto
          hintmask 10111100
          -84 callsubr
          endchar
        </CharString>
        <CharString name="uni01CB">
          382 60 callgsubr
          526 -20 64 160 -20 55 callsubr
          242 195 113 190 hintmask 11101111
          538 -88 callgsubr
          534 -558 -94 callgsubr
          hintmask 11110111
          -56 callgsubr
        </CharString>
        <CharString name="uni01CC">
          249 60 callgsubr
          370 166 -10 -20 64 160 -40 callgsubr
          96 190 hintmask 1110110110000000
          -77 callsubr
          hintmask 1101110110000000
          -22 callsubr
          hintmask 1110101110000000
          -80 callsubr
          80 -209 rmoveto
          121 85 90 131 hvcurveto
          hintmask 1101110110000000
          514 -190 -529 vlineto
          -27 -15 -16 -25 -18 -18 8 12 -11 vhcurveto
          -78 -129 rlineto
          -35 41 53 -19 55 hhcurveto
          -56 callgsubr
        </CharString>
        <CharString name="uni01F1">
          667 -2 callsubr
          hstem
          61 195 238 198 vstem
          -89 callsubr
          240 -356 rmoveto
          -83 callgsubr
          endchar
        </CharString>
        <CharString name="uni01F2">
          542 44 callgsubr
          41 callsubr
          238 198 hintmask 10111100
          334 hmoveto
          216 142 141 215 196 -122 158 -236 hvcurveto
          -273 -710 hlineto
          433 356 rmoveto
          hintmask 01111100
          -107 -58 -79 -102 vhcurveto
          -78 370 78 hlineto
          100 60 -74 -110 hvcurveto
          238 -356 rmoveto
          447 hlineto
          hintmask 10111100
          130 -248 vlineto
          -67 callgsubr
          endchar
        </CharString>
        <CharString name="uni01F3">
          -88 callsubr
          endchar
        </CharString>
        <CharString name="uni0218">
          -45 -3 callgsubr
          37 12 callsubr
          hstemhm
          44 202 -1 157 -20 210 hintmask 11110100
          -105 callsubr
          -143 -691 rmoveto
          hintmask 11101000
          -83 callsubr
        </CharString>
        <CharString name="uni0219">
          -161 -3 callgsubr
          36 133 283 131 hstemhm
          27 176 -20 157 -39 183 hintmask 11110100
          -104 callgsubr
          21 -203 rmoveto
          hintmask 11101000
          -83 callsubr
        </CharString>
        <CharString name="uni021A">
          -38 -3 callgsubr
          67 41 callgsubr
          hstemhm
          215 195 -172 157 hintmask 11110000
          -44 callsubr
          -273 -753 rmoveto
          hintmask 11101000
          -83 callsubr
        </CharString>
        <CharString name="uni021B">
          -239 -3 callgsubr
          35 173 17 callgsubr
          -114 157 hintmask 11111000
          -79 callgsubr
          -154 -242 rmoveto
          hintmask 11110100
          -83 callsubr
        </CharString>
        <CharString name="uni02C9">
          -224 607 113 hstem
          374 607 -61 callgsubr
        </CharString>
        <CharString name="uni030F">
          -263 -1 callgsubr
          284 556 -97 callsubr
        </CharString>
        <CharString name="uni0311">
          -294 568 -18 callgsubr
          hintmask 01000000
          184 649 rmoveto
          hintmask 10000000
          -92 callsubr
          hintmask 01000000
          -38 callsubr
        </CharString>
        <CharString name="uni0394">
          -3 37 callgsubr
          409 -16 callsubr
        </CharString>
        <CharString name="uni03A9">
          130 0 129 414 32 callgsubr
          129 hlineto
          -79 34 -49 108 59 callsubr
          -108 -79 -34 vhcurveto
          -129 329 129 -149 vlineto
          86 50 53 89 13 callgsubr
          -89 86 -50 vhcurveto
          -149 hlineto
          endchar
        </CharString>
        <CharString name="uni03BC">
          -9 45 callsubr
          49 178 161 190 hintmask 11011100
          49 -59 callsubr
        </CharString>
        <CharString name="uni0400">
          64 callgsubr
          205 -4 callsubr
          vstem
          260 -101 callgsubr
          -309 571 -86 callgsubr
          endchar
        </CharString>
        <CharString name="uni0401">
          64 callgsubr
          55 140 hstemhm
          65 195 -133 156 74 161 hintmask 11111010
          260 -101 callgsubr
          hintmask 11110110
          -288 595 -100 callsubr
        </CharString>
        <CharString name="uni0402">
          102 -10 161 -130 -21 309 160 76 165 hstemhm
          131 190 249 190 hintmask 01111100
          131 hmoveto
          190 247 hlineto
          42 49 52 20 57 hhcurveto
          53 38 -30 -49 hvcurveto
          hintmask 10111100
          -59 -42 -20 -46 -23 -24 8 10 -18 vhcurveto
          -51 -157 rlineto
          -15 44 45 -7 45 hhcurveto
          163 97 90 150 141 -102 98 -167 -65 -60 -19 -35 -45 hvcurveto
          130 273 165 -584 -165 121 vlineto
          endchar
        </CharString>
        <CharString name="uni0403">
          -127 38 callgsubr
          204 -4 callsubr
          vstem
          440 52 callsubr
          187 -30 rmoveto
          -463 -710 -14 callsubr
          268 hlineto
          endchar
        </CharString>
        <CharString name="uni0404">
          56 callsubr
          524 254 rmoveto
          -64 -24 -64 -23 -53 hhcurveto
          -77 -54 50 68 -22 hvcurveto
          207 155 -202 hlineto
          56 23 47 45 76 hhcurveto
          53 66 -19 -69 27 hvcurveto
          149 106 rlineto
          93 -49 -106 62 -136 hhcurveto
          -228 -135 -180 -173 -182 147 -185 210 121 141 60 105 42 hvcurveto
          endchar
        </CharString>
        <CharString name="uni0405">
          -45 -9 12 callsubr
          hstem
          44 202 136 210 vstem
          -105 callsubr
          endchar
        </CharString>
        <CharString name="uni0406">
          -337 5 callsubr
          65 195 vstem
          260 hmoveto
          710 -48 callgsubr
          vlineto
          endchar
        </CharString>
        <CharString name="uni0407">
          -337 -71 callgsubr
          75 140 hstemhm
          -31 156 -60 195 -61 156 hintmask 11101000
          260 hmoveto
          710 -48 callgsubr
          vlineto
          hintmask 11110100
          60 765 -100 callsubr
        </CharString>
        <CharString name="uni0408">
          -161 -11 173 548 -20 hstem
          250 195 vstem
          1 33 rmoveto
          -84 callsubr
          endchar
        </CharString>
        <CharString name="uni0409">
          434 0 164 -150 -21 310 152 85 170 hstemhm
          479 195 205 199 hintmask 01111100
          13 -7 rmoveto
          237 1 60 90 34 360 9 96 rcurveline
          126 hlineto
          hintmask 10111100
          -540 351 vlineto
          26 callgsubr
          46 callsubr
          hintmask 01111100
          hintmask 10111100
          661 3 rmoveto
          139 128 vlineto
          50 27 -32 -37 -43 -27 -27 -50 hvcurveto
          endchar
        </CharString>
        <CharString name="uni040A">
          453 0 164 114 177 255 -4 callsubr
          238 195 205 199 vstem
          65 hmoveto
          195 278 238 -278 351 hlineto
          26 callgsubr
          -195 -262 -238 262 -195 hlineto
          628 77 callsubr
          -18 -41 -47 -27 -13 -50 hvcurveto
          endchar
        </CharString>
        <CharString name="uni040B">
          92 21 -21 285 181 79 165 hstem
          131 190 213 191 vstem
          534 hmoveto
          191 219 hlineto
          171 -96 76 -152 -62 -54 -9 -17 -40 vhcurveto
          105 253 165 -564 -165 121 -545 190 257 vlineto
          18 29 36 10 38 hhcurveto
          79 31 -55 -95 hvcurveto
          endchar
        </CharString>
        <CharString name="uni040C">
          28 -71 callgsubr
          224 -20 hstem
          65 194 vstem
          505 52 callsubr
          -147 -30 rmoveto
          -194 -710 194 -46 callsubr
          hlineto
          endchar
        </CharString>
        <CharString name="uni040D">
          107 -71 callgsubr
          225 -4 callsubr
          249 195 vstem
          360 741 -86 callgsubr
          -1 -205 rmoveto
          -48 callgsubr
          145 hlineto
          299 394 rlineto
          -394 195 710 -142 vlineto
          -302 -406 rlineto
          endchar
        </CharString>
        <CharString name="uni040E">
          -11 -7 169 548 -20 64 101 -101 162 hstemhm
          127 118 hintmask 11011000
          -47 callsubr
          118 761 rmoveto
          124 85 67 95 hvcurveto
          -118 hlineto
          hintmask 11101000
          -35 -6 -39 -26 -46 hhcurveto
          hintmask 11011000
          53 callgsubr
          vhcurveto
          endchar
        </CharString>
        <CharString name="uni040F">
          65 -145 -21 166 27 callgsubr
          hstem
          64 195 14 180 15 195 vstem
          64 hmoveto
          209 -166 180 166 210 710 -195 -540 -209 540 -195 hlineto
          endchar
        </CharString>
</ttFont>
